<svg width="135" height="29" viewBox="0 0 135 29" fill="none" xmlns="http://www.w3.org/2000/svg">
<g clip-path="url(#clip0_15_2779)">
<path d="M135.349 -1.21338H-1.13879V19.6666H135.349V-1.21338Z" fill="#9E006B"/>
<path fill-rule="evenodd" clip-rule="evenodd" d="M0.741591 19.6644C1.26736 18.7225 1.90333 17.6762 2.13981 17.3444C2.56914 16.7505 2.99389 16.1287 3.45077 15.5742C4.07297 14.8179 4.62169 14.7321 5.09006 14.0941L5.00052 13.8041C5.27833 13.4236 5.49184 13.5721 5.55154 12.9294C5.36966 12.9663 5.18559 12.9911 5.00052 13.0037H4.52986C2.73215 13.0037 2.58521 10.635 1.93547 9.94593C1.96638 10.7911 2.05614 11.633 2.20409 12.4654C2.40613 13.5466 2.32807 13.9433 2.32807 15.043H2.25001V13.5141L2.15588 13.5002L1.53368 17.581H1.62093H1.55664L1.46481 16.8526L1.33394 16.8642L1.16404 17.2168L1.0722 16.2726C1.19924 15.8185 1.27623 15.3517 1.3018 14.8806C1.3018 14.3609 1.33853 13.883 1.37986 13.3494C1.46021 12.3494 1.60945 11.4052 1.60945 10.2939L1.63011 9.92737L1.52679 7.80457L-0.119379 8.39849C-0.0114707 7.97393 1.88037 5.96713 2.30282 5.47297C2.67475 5.03681 3.1523 4.49393 3.55409 4.08097C4.15562 3.46849 4.17169 3.18081 5.07858 2.86993C7.58802 2.01385 10.6852 0.902568 12.9306 -0.204072L13.0844 -0.125192L16.9462 5.55649V-1.15991H-1.14795V19.6574L0.741591 19.6644Z" fill="#DC078A"/>
<path fill-rule="evenodd" clip-rule="evenodd" d="M16.9576 19.6643V5.57963L13.0867 -0.102051C12.903 0.631069 10.7517 2.26203 10.5726 2.88611C11.1397 3.00675 12.7905 4.08323 13.0981 4.54491C13.2566 4.77691 14.2599 7.18507 14.2599 7.40083V7.47275C14.2599 7.81379 14.0303 7.88803 14.0303 8.12931C14.0303 8.37059 15.2884 9.34035 15.2884 9.65819V9.73011C15.2884 10.15 15.0267 10.1616 14.6594 10.2405C14.6594 10.7416 14.8155 10.6303 14.8155 10.969V11.0432C14.8155 11.2056 14.7535 11.201 14.6594 11.3332C14.7058 11.3661 14.744 11.4094 14.7711 11.4597C14.7982 11.51 14.8134 11.566 14.8155 11.6232C14.7491 11.8388 14.6508 12.0429 14.5239 12.2287C14.2828 12.6927 14.5239 12.5814 14.5009 12.9247C14.478 13.3609 14.0418 13.7275 13.4839 13.7298C10.9239 13.746 11.9915 13.6556 11.1879 15.0383C11.3349 15.2401 11.5025 15.2888 11.5025 15.6206V15.6948C11.5025 16.0127 11.3464 15.957 11.3464 16.2772C11.3464 17.291 11.8836 18.451 12.2073 19.6551L16.9576 19.6643Z" fill="#BE0780"/>
<path fill-rule="evenodd" clip-rule="evenodd" d="M12.4661 19.6644C12.4248 18.0033 11.3664 17.7109 11.3664 16.2865C11.3664 15.9663 11.5225 16.022 11.5225 15.7041V15.6299C11.5225 15.2981 11.3549 15.2494 11.2079 15.0476C12 13.6556 10.9324 13.7553 13.5039 13.7391C14.0503 13.7391 14.498 13.3702 14.5209 12.9341C14.537 12.5814 14.3028 12.6881 14.5439 12.2381C14.6708 12.0522 14.7691 11.8481 14.8355 11.6325C14.8334 11.5753 14.8182 11.5193 14.7911 11.469C14.764 11.4187 14.7258 11.3754 14.6794 11.3425C14.7735 11.2103 14.8355 11.2149 14.8355 11.0525V10.9783C14.8355 10.6396 14.6794 10.7463 14.6794 10.2498C15.0467 10.1709 15.3084 10.1593 15.3084 9.73941V9.66749C15.3084 9.34965 14.0503 8.37293 14.0503 8.13861C14.0503 7.90429 14.2799 7.82309 14.2799 7.48205V7.40085C14.2799 7.18509 13.2766 4.77693 13.1181 4.54493C12.8036 4.08093 11.1528 3.00677 10.5926 2.88613C10.7717 2.26205 12.923 0.631092 13.1067 -0.102028L12.9528 -0.180908C10.7074 0.925732 7.61023 2.03701 5.10079 2.89309C4.1939 3.20397 4.18242 3.49165 3.5763 4.10413C3.17452 4.51477 2.69697 5.05765 2.32503 5.49613C1.90258 5.99029 0.0107402 7.99709 -0.097168 8.42165L1.54901 7.82773L1.65232 9.95053L1.63166 10.3171C1.63166 11.4284 1.47554 12.3726 1.40207 13.3725C1.36074 13.9061 1.32401 14.3841 1.32401 14.9037C1.29844 15.3749 1.22145 15.8417 1.09441 16.2957L1.18625 17.24L1.35615 16.8873L1.48701 16.8757L1.57885 17.6042H1.64314H1.55589L2.17809 13.5233L2.27222 13.5373V15.0661H2.35028C2.35028 13.9665 2.42834 13.5697 2.2263 12.4886C2.07835 11.6562 1.98859 10.8143 1.95768 9.96909C2.60742 10.6651 2.75436 13.0269 4.55207 13.0269H5.02273C5.20781 13.0142 5.39187 12.9894 5.57375 12.9526C5.51406 13.6045 5.30054 13.4468 5.02273 13.8273L5.11227 14.1173C4.65309 14.7553 4.09518 14.8411 3.47299 15.5974C3.0138 16.1519 2.59135 16.7737 2.16202 17.3676C1.77171 17.9058 0.306914 19.0519 0.0291083 19.6876L12.4661 19.6644Z" fill="white"/>
<path fill-rule="evenodd" clip-rule="evenodd" d="M2.10071 7.63753V9.00169C2.10071 10.2383 3.30607 12.7137 4.6928 12.7137H5.00734C5.39306 12.7137 5.20249 12.3193 5.23693 11.9875C5.27137 11.6558 5.46653 11.6187 5.46653 11.1848C5.46653 11.1013 4.59408 10.1176 4.46321 10.0016C4.0201 9.60025 3.89382 9.12233 3.89382 8.34513L3.86168 8.11313L4.03617 6.92065L2.10071 7.63753Z" fill="#DC078A"/>
<path fill-rule="evenodd" clip-rule="evenodd" d="M42.1898 4.51697V13.6369C42.2182 13.7919 42.2906 13.9352 42.3982 14.0493C42.5059 14.1634 42.644 14.2434 42.7959 14.2795H43.3125C43.7717 14.2795 44.0908 13.8155 44.0908 13.3515V10.4979H46.1571C46.7196 10.4979 48.2395 14.3654 49.353 14.3654C49.5975 14.3583 49.8305 14.2592 50.0063 14.0876C50.1822 13.9159 50.2882 13.684 50.3036 13.4374V13.2541C50.3036 12.4699 48.4002 10.7972 48.2372 10.1221C49.1992 10.0362 50.136 8.39137 50.136 7.17569C50.136 5.17585 48.7699 3.6748 46.8528 3.6748H42.9681C42.8621 3.6781 42.7579 3.70253 42.6613 3.74671C42.5648 3.79088 42.4778 3.85393 42.4055 3.9322C42.3331 4.01048 42.2768 4.10245 42.2398 4.20281C42.2028 4.30317 42.1858 4.40994 42.1898 4.51697Z" fill="white"/>
<path fill-rule="evenodd" clip-rule="evenodd" d="M18.9529 13.0824V13.4559C18.9529 13.8341 19.3753 14.3839 19.6417 14.3839H19.9883C20.645 14.3839 21.2465 13.0152 21.3659 12.4491H26.5501C27.0896 12.4491 27.0965 14.2911 28.0172 14.2911H28.4511C28.7863 14.2911 29.1399 13.7854 29.1399 13.3631V13.2727C29.1399 12.8481 27.1998 8.95051 26.8922 8.29859C26.5409 7.54923 24.9659 3.60059 24.3001 3.60059H24.2151C23.0878 3.60059 23.019 4.76059 22.5391 5.59115C22.0593 6.42171 21.7424 7.21515 21.3338 8.08283C21.0789 8.63963 18.9529 12.9293 18.9529 13.0824Z" fill="white"/>
<path fill-rule="evenodd" clip-rule="evenodd" d="M50.5699 13.2682V13.4561C50.5699 13.825 51.0498 14.3841 51.1784 14.3841L52.0967 14.3052L52.999 12.433H58.1809C58.7205 12.433 58.7296 14.275 59.6503 14.275H60.0819C60.4171 14.275 60.7707 13.7693 60.7707 13.347V13.2566C60.7707 12.8297 58.8192 8.90887 58.4955 8.22215L57.3154 5.70495C57.0146 5.06231 56.5944 3.58447 55.761 3.58447H55.6738C54.8909 3.58447 54.4041 5.00431 54.0896 5.67247L52.9095 8.18967C52.5766 8.88103 50.5699 12.7879 50.5699 13.2682Z" fill="white"/>
<path fill-rule="evenodd" clip-rule="evenodd" d="M89.1873 13.1752V13.6392C89.1873 13.9083 89.6235 14.3747 89.876 14.3747H90.1378C91.3087 14.3747 91.2168 12.4398 91.777 12.4398H96.9612C97.0531 12.862 97.6821 14.2819 98.0839 14.2819H98.5156C98.9082 14.2819 99.3788 13.8457 99.3788 13.4536C99.3788 12.927 97.4503 9.06419 97.1059 8.32643C96.6857 7.42395 95.2416 3.59595 94.3622 3.59595C93.3566 3.59595 93.0651 4.88819 92.723 5.62363C92.3327 6.45187 91.9079 7.26387 91.5107 8.11067C91.2168 8.75795 89.1873 12.7971 89.1873 13.1752Z" fill="white"/>
<path fill-rule="evenodd" clip-rule="evenodd" d="M117.005 4.79548V13.5419C117.033 13.7352 117.125 13.9132 117.266 14.0471C117.407 14.181 117.588 14.2629 117.781 14.2796H123.481C123.599 14.2779 123.715 14.2523 123.823 14.2044C123.931 14.1564 124.028 14.0872 124.108 14.0006C124.189 13.9141 124.252 13.812 124.293 13.7006C124.334 13.5891 124.352 13.4704 124.347 13.3516V13.2612C124.34 13.0263 124.248 12.8021 124.089 12.6311C123.929 12.4601 123.713 12.3541 123.481 12.3332H118.903V9.95284H122.705C122.917 9.94617 123.117 9.85537 123.262 9.70023C123.408 9.54509 123.486 9.33819 123.481 9.1246V8.8462C123.486 8.63262 123.408 8.42572 123.262 8.27058C123.117 8.11544 122.917 8.02464 122.705 8.01796H118.903V5.62372H123.396C124.129 5.62372 124 4.69572 124 4.15052C123.725 3.95332 123.658 3.68652 123.224 3.68652H117.868C117.28 3.68884 117.005 4.15748 117.005 4.79548Z" fill="white"/>
<path fill-rule="evenodd" clip-rule="evenodd" d="M108.278 6.08529V6.35905C108.278 10.3031 114.066 9.06881 114.066 11.3331C114.066 11.9665 113.253 12.7251 112.688 12.7251H111.999C110.608 12.7251 109.538 11.7113 109.063 11.7113H108.976C108.764 11.718 108.564 11.8087 108.418 11.9638C108.272 12.1188 108.193 12.3257 108.197 12.5395V12.8156C108.197 13.9478 110.493 14.6577 111.655 14.6577C113.884 14.6577 115.974 13.6485 115.974 11.3424V10.8784C115.974 9.45857 114.497 8.68137 113.448 8.31017C112.511 7.97609 110.177 7.59329 110.177 6.45417V6.17577C110.177 5.41481 111.077 4.97865 111.818 4.97865C113.049 4.97865 114.171 5.80689 114.41 5.80689C114.641 5.78546 114.857 5.67923 115.016 5.50827C115.175 5.33731 115.267 5.11343 115.273 4.87889C115.273 3.91377 113.57 3.22241 112.596 3.22241H111.559C110.066 3.22937 108.278 4.57729 108.278 6.08529Z" fill="white"/>
<path fill-rule="evenodd" clip-rule="evenodd" d="M99.8127 6.35917V6.63757C99.8127 10.1176 105.513 9.17333 105.513 11.2405C105.513 12.1847 104.774 12.716 103.872 12.716H103.268C102.063 12.716 100.997 11.7021 100.589 11.7021H100.332C99.9069 11.7021 99.6428 12.2937 99.6428 12.8065C99.6428 13.9085 102.019 14.6485 103.185 14.6485H103.704C105.716 14.6485 107.419 13.3586 107.419 11.1477V11.0572C107.419 7.43797 101.631 8.60957 101.631 6.26869C101.631 5.51237 102.46 4.97877 103.185 4.97877H103.532C104.604 4.97877 105.557 5.80701 105.952 5.80701H106.037C106.326 5.80701 106.726 5.39637 106.726 4.97877V4.79549C106.726 3.95333 105.006 3.22949 104.221 3.22949H103.443C101.48 3.22949 99.8127 4.28277 99.8127 6.35917Z" fill="white"/>
<path fill-rule="evenodd" clip-rule="evenodd" d="M125.128 6.26393V6.54001C125.128 10.1012 130.916 9.32401 130.916 11.1429C130.902 11.5552 130.733 11.9467 130.444 12.238C130.155 12.5293 129.767 12.6985 129.359 12.7112H128.927C127.348 12.7112 126.388 11.6974 125.904 11.6974H125.816C125.479 11.6974 125.038 12.0477 125.038 12.3423V12.8945C125.038 13.9246 127.387 14.6438 128.482 14.6438H128.829C130.872 14.6438 132.716 13.4838 132.716 11.3285V10.8645C132.716 7.64897 126.928 8.31249 126.928 6.44257C126.936 6.05248 127.094 5.68088 127.368 5.40607C127.642 5.13126 128.011 4.97469 128.397 4.96937C129.949 4.97865 130.867 5.79993 131.258 5.79993C131.469 5.79326 131.67 5.70253 131.815 5.54746C131.961 5.39239 132.04 5.18549 132.036 4.97169V4.78841C132.036 3.96481 130.385 3.22241 129.616 3.22241H128.572C126.824 3.22937 125.128 4.40793 125.128 6.26393Z" fill="white"/>
<path fill-rule="evenodd" clip-rule="evenodd" d="M72.3397 8.75349V9.49125C72.3397 12.0154 74.3601 14.3633 76.7456 14.3633H78.215C79.1999 14.3633 81.1515 13.4353 81.1515 12.614V12.3379C81.1573 12.2191 81.1394 12.1004 81.0988 11.9888C81.0582 11.8772 80.9958 11.775 80.9152 11.6883C80.8346 11.6017 80.7375 11.5324 80.6298 11.4845C80.522 11.4367 80.4059 11.4113 80.2882 11.4099H80.1275C79.5236 11.4099 78.9106 12.5142 77.7948 12.5142H76.8443C75.29 12.5142 74.0892 10.6582 74.0892 8.92285C74.0892 6.80469 75.4461 5.33149 77.4573 5.33149C79.0392 5.33149 79.4272 6.52861 80.1367 6.52861C80.3719 6.51836 80.5939 6.41556 80.7552 6.24217C80.9165 6.06878 81.0043 5.83854 80.9999 5.60061V5.41501C80.9999 4.30141 78.7178 3.38965 77.3724 3.38965H76.8535C74.3119 3.41285 72.3397 5.94165 72.3397 8.75349Z" fill="white"/>
<path fill-rule="evenodd" clip-rule="evenodd" d="M28.1962 4.42651C28.1962 5.17587 30.0191 8.74635 30.3888 9.73003C30.6758 10.4887 31.1717 11.5188 31.5367 12.282C31.8467 12.9363 32.3426 14.4628 33.1209 14.4628C34.0691 14.4628 35.2699 10.7624 35.6854 9.82283C35.9564 9.21963 37.7862 5.00187 37.7862 4.69563V4.51003C37.7862 3.93467 37.3087 3.58203 36.7508 3.58203C35.8485 3.58203 35.1138 6.32427 34.7326 7.14323C34.3906 7.87867 33.2701 10.5513 33.1255 11.2264C32.8247 10.9944 31.6607 7.88795 31.399 7.26619C31.0523 6.45187 30.2235 3.58203 29.3326 3.58203C28.8 3.59595 28.1962 4.11795 28.1962 4.42651Z" fill="white"/>
<path fill-rule="evenodd" clip-rule="evenodd" d="M61.3699 4.60988V13.3586C61.3699 13.8226 61.6798 14.2866 62.1459 14.2866H67.1579C67.6951 14.2866 68.1084 14.0244 68.1084 13.4584V13.1823C68.1084 12.6278 67.539 12.2543 67.0706 12.2543H63.1837V4.60988C63.1837 4.23172 62.7612 3.68188 62.4949 3.68188H62.2354C62.004 3.70327 61.7882 3.80941 61.6288 3.98032C61.4694 4.15124 61.3773 4.37514 61.3699 4.60988Z" fill="white"/>
<path fill-rule="evenodd" clip-rule="evenodd" d="M82.2741 4.51696V13.4559C82.2692 13.6699 82.3483 13.8771 82.4942 14.0323C82.64 14.1875 82.8407 14.2781 83.0525 14.2842H88.1494C88.3809 14.2628 88.5966 14.1566 88.756 13.9857C88.9154 13.8148 89.0075 13.5909 89.015 13.3562V13.2657C89.0075 13.0309 88.9154 12.807 88.756 12.6361C88.5966 12.4652 88.3809 12.3591 88.1494 12.3377H84.003V4.51696C84.0073 4.30316 83.928 4.09626 83.7823 3.94119C83.6366 3.78612 83.4362 3.6954 83.2247 3.68872H83.0525C82.8409 3.6954 82.6406 3.78612 82.4948 3.94119C82.3491 4.09626 82.2698 4.30316 82.2741 4.51696Z" fill="white"/>
<path fill-rule="evenodd" clip-rule="evenodd" d="M38.7344 4.3338V13.5419C38.7344 14.0848 39.1936 14.3724 39.6849 14.3724C39.9415 14.3582 40.183 14.2452 40.3598 14.0567C40.5366 13.8681 40.6352 13.6183 40.6354 13.3586V4.60988C40.6354 4.14588 40.3232 3.68188 39.8571 3.68188H39.5127C39.1752 3.68884 38.7344 4.04148 38.7344 4.3338Z" fill="white"/>
<path fill-rule="evenodd" clip-rule="evenodd" d="M44.0817 8.75349H47.0204C47.6954 8.75349 48.3153 7.92061 48.3153 7.18981C48.3153 6.34997 47.7574 5.53101 47.0204 5.53101H44.0817V8.75349Z" fill="#9E006B"/>
<path fill-rule="evenodd" clip-rule="evenodd" d="M53.9358 10.4099L57.3246 10.4029L55.683 6.59814L53.9358 10.4099Z" fill="#9E006B"/>
<path fill-rule="evenodd" clip-rule="evenodd" d="M22.3209 10.4121L25.7074 10.4028L24.1026 6.6189L22.3209 10.4121Z" fill="#9E006B"/>
<path fill-rule="evenodd" clip-rule="evenodd" d="M92.5232 10.3959L95.8936 10.3867L94.3691 6.72803L94.2291 6.74659L92.5232 10.3959Z" fill="#9E006B"/>
<path fill-rule="evenodd" clip-rule="evenodd" d="M-1.28796 21.7128H0.518923V26.68H-1.28796V21.7128ZM1.89418 21.7128H3.70107V26.68H1.89418V21.7128ZM4.59188 21.7128H10.086V22.9424H8.24928V26.68H6.42862V22.9424H4.59188V21.7128ZM9.28933 24.3391V25.4109H11.6495V24.3391H9.28933ZM14.8638 21.7128H16.6799V24.4133C16.6839 24.6541 16.6755 24.8949 16.6546 25.1348C16.6321 25.2996 16.592 25.4613 16.5353 25.6174C16.4846 25.7769 16.4026 25.9245 16.2942 26.0512C16.1715 26.1926 16.0292 26.3153 15.8717 26.4155C15.6733 26.545 15.4543 26.6392 15.2243 26.6939C14.9555 26.7555 14.6803 26.7844 14.4046 26.7797C14.0549 26.785 13.7058 26.7484 13.3646 26.6707C13.1014 26.614 12.8528 26.5026 12.6345 26.3436C12.4404 26.1931 12.2833 25.9993 12.1753 25.7775C12.1152 25.6702 12.0689 25.5556 12.0375 25.4364C12.0083 25.2965 11.9891 25.1546 11.9801 25.0119L13.7044 24.8124C13.6922 25.0297 13.7433 25.2458 13.8513 25.4341C13.9038 25.4988 13.9713 25.5494 14.0478 25.5813C14.1243 25.6133 14.2075 25.6257 14.2898 25.6174C14.3763 25.6274 14.4638 25.6149 14.5441 25.5812C14.6245 25.5475 14.695 25.4937 14.749 25.4248C14.856 25.2297 14.9031 25.0068 14.8845 24.7845V21.7128H14.8638ZM17.8898 21.7128H22.7296V22.7754H19.7036V23.5688H22.5184V24.592H19.7036V25.571H22.8307V26.68H17.8898V21.7128ZM23.7949 21.7128H28.6439V22.7754H25.6087V23.5688H28.4235V24.592H25.6087V25.571H28.7335V26.68H23.7949V21.7128ZM32.4483 21.6293H33.4631V27.2553H32.4483V21.6293ZM37.4235 21.7128H39.1133L41.3059 24.4644H41.3266V21.7128H43.0279V26.68H41.3174L39.1455 23.947H39.1294V26.68H37.4235V21.7128ZM44.2355 21.7128H49.0822V22.7754H46.0493V23.5688H48.8641V24.592H46.0493V25.571H49.174V26.68H44.2355V21.7128ZM50.1383 21.7128H54.9873V22.7754H51.9544V23.5688H54.7669V24.592H51.9544V25.571H55.0791V26.68H50.1383V21.7128ZM55.6485 21.7128H61.1403V22.9424H59.3036V26.68H57.4875V22.9424H55.6508V21.7128H55.6485ZM64.7059 21.6293H65.7184V27.2553H64.699V21.6293H64.7059ZM69.6789 21.7128H74.1513V22.7824H71.4858V23.664H73.7633V24.6639H71.4858V26.68H69.672V21.7128H69.6789ZM74.8952 24.2068C74.8906 23.8335 74.9593 23.4629 75.0972 23.1164C75.2299 22.7987 75.4362 22.5178 75.6988 22.2975C75.9837 22.0686 76.3106 21.8991 76.6608 21.7987C77.5016 21.5713 78.3868 21.5713 79.2276 21.7987C79.5741 21.8959 79.8975 22.0632 80.1781 22.2905C80.4323 22.5037 80.6317 22.7759 80.759 23.084C80.9004 23.4261 80.9692 23.7944 80.961 24.1651C80.9639 24.4376 80.9338 24.7095 80.8715 24.9748C80.7592 25.4365 80.4944 25.8458 80.1207 26.1348C79.8447 26.3568 79.5268 26.5195 79.1863 26.6127C78.7755 26.7198 78.3523 26.7705 77.9281 26.7635C77.4962 26.7714 77.0654 26.7159 76.6493 26.5988C76.2969 26.4932 75.97 26.3146 75.6896 26.0744C75.3439 25.7808 75.0969 25.386 74.9824 24.9446C74.9213 24.7005 74.892 24.4493 74.8952 24.1976V24.2068ZM76.709 24.2068C76.709 25.1488 77.1154 25.6197 77.9281 25.6197C78.0972 25.6323 78.2669 25.6074 78.4255 25.5469C78.5841 25.4864 78.7278 25.3917 78.8465 25.2694C79.07 24.9668 79.1777 24.5927 79.1495 24.2161C79.1578 23.9628 79.1221 23.7099 79.0439 23.4691C78.9819 23.284 78.8658 23.1222 78.711 23.0051C78.4842 22.8427 78.2104 22.7611 77.9327 22.7731C77.7634 22.7603 77.5934 22.7853 77.4347 22.8462C77.276 22.9072 77.1325 23.0026 77.0143 23.1257C76.787 23.4336 76.6784 23.8146 76.709 24.1976V24.2068ZM85.7434 21.7059H87.5434V24.6708C87.5454 24.9513 87.4932 25.2295 87.3896 25.4898C87.2882 25.7386 87.131 25.9602 86.9304 26.1371C86.6873 26.3617 86.3968 26.5275 86.0809 26.622C85.6923 26.7306 85.2901 26.7814 84.887 26.7728C84.5325 26.777 84.1781 26.7568 83.8263 26.7124C83.5799 26.6818 83.3389 26.617 83.11 26.5199C82.8997 26.4253 82.7064 26.296 82.5383 26.1371C82.3377 25.9602 82.1805 25.7386 82.0791 25.4898C81.9745 25.2299 81.9222 24.9514 81.9253 24.6708V21.7128H83.723V24.7497C83.7168 24.8693 83.7374 24.9887 83.7831 25.0991C83.8288 25.2096 83.8985 25.3082 83.987 25.3877C84.198 25.5538 84.4617 25.6363 84.7286 25.6197C84.9142 25.6253 85.0988 25.5913 85.2705 25.52C85.4101 25.4577 85.5277 25.3542 85.6079 25.223C85.6888 25.0823 85.7294 24.9216 85.725 24.759V21.7128L85.7434 21.7059ZM88.7534 21.7059H90.4432L92.6357 24.4574H92.6518V21.7128H94.3531V26.68H92.6449L90.4592 23.9563V26.68H88.758V21.7128L88.7534 21.7059ZM95.5722 21.7059H98.2539C99.1562 21.7059 99.8335 21.9147 100.281 22.3346C100.729 22.7545 100.952 23.3832 100.952 24.2277C100.962 24.6005 100.902 24.972 100.777 25.3228C100.655 25.6255 100.459 25.8921 100.208 26.0976C99.9776 26.295 99.7094 26.4419 99.4202 26.5292C99.2275 26.5779 99.032 26.6143 98.8347 26.6382C98.6415 26.666 98.4467 26.6807 98.2516 26.6823H95.5653V21.7128L95.5722 21.7059ZM97.3791 22.8241V25.5478H97.8062C98.0115 25.5519 98.2167 25.5364 98.4192 25.5014C98.5452 25.4792 98.6641 25.4267 98.7659 25.3483C98.8941 25.2351 98.9887 25.0881 99.0391 24.9237C99.1018 24.6918 99.1297 24.4517 99.1217 24.2115C99.1217 23.6964 99.0253 23.3345 98.8324 23.1304C98.6396 22.9262 98.2998 22.8241 97.8153 22.8241H97.3791ZM105.507 25.8633H103.44L103.165 26.6823H101.307L103.509 21.7059H105.486L107.679 26.68H105.791L105.497 25.861L105.507 25.8633ZM105.13 24.7845L104.494 22.9981H104.464L103.824 24.7845H105.13ZM107.022 21.7059V22.9355H108.859V26.68H110.663V22.9424H112.5V21.7128L107.022 21.7059ZM113.412 21.7059H115.218V26.68H113.412V21.7128V21.7059ZM116.275 24.1999C116.269 23.8264 116.338 23.4556 116.477 23.1095C116.609 22.7918 116.816 22.5109 117.078 22.2905C117.362 22.0675 117.686 21.9035 118.033 21.808C118.874 21.5805 119.759 21.5805 120.6 21.808C120.947 21.9051 121.27 22.0725 121.551 22.2998C121.804 22.5136 122.003 22.7857 122.131 23.0932C122.272 23.4357 122.341 23.8038 122.333 24.1744C122.337 24.4471 122.306 24.7191 122.242 24.984C122.186 25.2139 122.093 25.4333 121.968 25.6336C121.838 25.8304 121.678 26.0051 121.493 26.151C121.217 26.3731 120.899 26.5357 120.559 26.6289C120.148 26.7357 119.725 26.7864 119.301 26.7797C118.868 26.7876 118.436 26.7322 118.019 26.615C117.667 26.5099 117.341 26.3312 117.062 26.0907C116.89 25.944 116.74 25.7719 116.619 25.5803C116.5 25.3885 116.411 25.1796 116.355 24.9608C116.294 24.7167 116.264 24.4656 116.268 24.2138L116.275 24.1999ZM118.091 24.1999C118.091 25.1418 118.495 25.6128 119.307 25.6128C119.477 25.6253 119.646 25.6005 119.805 25.54C119.963 25.4795 120.107 25.3848 120.226 25.2624C120.449 24.9598 120.557 24.5857 120.529 24.2092C120.537 23.9558 120.501 23.703 120.423 23.4621C120.361 23.277 120.245 23.1153 120.09 22.9981C119.863 22.8354 119.588 22.7538 119.31 22.7661C119.14 22.7526 118.97 22.7772 118.811 22.8382C118.653 22.8991 118.509 22.995 118.391 23.1188C118.165 23.4271 118.057 23.808 118.088 24.1906L118.091 24.1999ZM123.323 21.6989H125.01L127.194 24.4644H127.212V21.7128H128.914V26.68H127.203L125.031 23.947H125.015V26.68H123.314V21.7128L123.323 21.6989ZM129.823 25.0281L131.547 24.9376C131.627 25.5037 131.967 25.7844 132.569 25.7844C132.772 25.7932 132.974 25.7425 133.15 25.6383C133.217 25.6029 133.273 25.5501 133.314 25.4853C133.354 25.4205 133.377 25.3459 133.379 25.2694C133.378 25.1881 133.354 25.1088 133.309 25.0413C133.264 24.9737 133.201 24.9208 133.127 24.8889C132.848 24.7606 132.553 24.6738 132.25 24.6314C131.788 24.5569 131.336 24.4276 130.904 24.2463C130.625 24.1229 130.386 23.9217 130.215 23.6663C130.106 23.4934 130.047 23.2932 130.045 23.0883C130.042 22.8833 130.097 22.6817 130.202 22.5063C130.304 22.3201 130.449 22.1612 130.624 22.0423C130.868 21.8852 131.138 21.7721 131.421 21.7082C131.786 21.6323 132.159 21.5973 132.532 21.6038C133.29 21.6038 133.863 21.7229 134.252 21.9611C134.445 22.081 134.608 22.245 134.728 22.44C134.847 22.635 134.92 22.8555 134.94 23.084L133.239 23.1768C133.215 22.9825 133.116 22.8058 132.964 22.6849C132.78 22.5682 132.565 22.513 132.348 22.5272C132.188 22.5186 132.029 22.5556 131.889 22.6339C131.838 22.6613 131.795 22.7024 131.765 22.7527C131.735 22.803 131.719 22.8606 131.719 22.9192C131.72 22.9691 131.735 23.0176 131.763 23.0589C131.791 23.1001 131.83 23.1322 131.875 23.1512C132.06 23.2321 132.255 23.2882 132.454 23.3183C132.821 23.3879 133.143 23.4528 133.372 23.5132C133.591 23.5641 133.807 23.63 134.017 23.7104C134.175 23.7717 134.329 23.8446 134.477 23.9284C134.606 24.0092 134.721 24.1102 134.819 24.2277C135.009 24.4558 135.113 24.7439 135.115 25.042C135.116 25.2793 135.056 25.5128 134.94 25.7195C134.817 25.9357 134.648 26.1212 134.444 26.2624C134.282 26.3745 134.107 26.4664 133.923 26.5361C133.718 26.6131 133.504 26.6668 133.287 26.6962C133.035 26.73 132.78 26.7463 132.525 26.7449C131.653 26.7449 131.012 26.6196 130.61 26.3668C130.388 26.2267 130.2 26.037 130.062 25.8123C129.988 25.6968 129.928 25.573 129.882 25.4434C129.849 25.3118 129.827 25.1775 129.816 25.042L129.823 25.0281Z" fill="black"/>
<path d="M-1.35925 29.0535H135.018" stroke="#9E006B" stroke-width="0.22" stroke-miterlimit="22.93"/>
</g>
<defs>
<clipPath id="clip0_15_2779">
<rect width="135" height="29" fill="white"/>
</clipPath>
</defs>
</svg>
