<svg width="293" height="63" viewBox="0 0 293 63" fill="none" xmlns="http://www.w3.org/2000/svg">
<path d="M35.1709 4.91528L37.5193 5.46142L38.3931 8.02824L40.3045 6.06216L42.6529 6.60829L39.0484 9.88509L38.3931 12.6704L36.2632 12.1788L36.9185 9.39357L35.1709 4.91528Z" fill="#012C63"/>
<path d="M28.6173 9.61204L28.3443 8.1921L31.6757 7.59135L32.2218 10.4859C31.9487 10.7589 31.6757 10.9774 31.4026 11.1412C31.1842 11.3597 30.9111 11.4689 30.6926 11.6327C30.4742 11.742 30.2011 11.8512 29.9281 11.9058C29.655 12.015 29.3273 12.0696 28.9996 12.1243C28.6173 12.1789 28.235 12.2335 27.8527 12.2335C27.5251 12.2335 27.1974 12.1789 26.9243 12.0696C26.6513 11.9604 26.3782 11.8512 26.1597 11.6873C25.9413 11.5235 25.7228 11.3051 25.5044 11.032C25.3405 10.8135 25.1767 10.5405 25.0129 10.2128C24.9036 9.93972 24.7944 9.55743 24.7398 9.22975C24.576 8.51978 24.6306 7.80981 24.849 7.20906C24.9582 6.936 25.0675 6.60832 25.2859 6.38986C25.5044 6.17141 25.7228 5.95296 25.9959 5.7345C26.2143 5.57066 26.4874 5.46144 26.7605 5.35221C27.0335 5.24299 27.4158 5.13376 27.7981 5.07915C28.5627 4.91531 29.1635 4.9153 29.5458 4.96992C29.7642 5.02453 29.928 5.07915 30.1465 5.13376C30.3103 5.18837 30.4742 5.2976 30.638 5.40683C30.8019 5.51605 30.9111 5.67989 31.0749 5.84373C31.1841 6.00757 31.2934 6.17141 31.4026 6.38986L29.3819 7.09983C29.3273 6.99061 29.2181 6.88138 29.1635 6.77216C29.0542 6.66293 28.945 6.60832 28.8904 6.5537C28.7812 6.49909 28.6719 6.44448 28.5081 6.44448C28.3443 6.44448 28.235 6.44448 28.0712 6.49909C27.8527 6.5537 27.6343 6.60832 27.4705 6.71754C27.3066 6.82677 27.1974 6.93599 27.0335 7.15445C26.9243 7.31829 26.8697 7.53674 26.8151 7.80981C26.7605 8.08287 26.8151 8.35594 26.8697 8.73823C26.9243 9.12052 27.0335 9.39359 27.1428 9.66666C27.252 9.93972 27.3612 10.1036 27.5797 10.2674C27.7435 10.4312 27.9074 10.4859 28.1258 10.5405C28.3443 10.5951 28.5627 10.5951 28.8358 10.5405C28.945 10.5405 29.0542 10.4859 29.1635 10.4312C29.2727 10.3766 29.3819 10.3766 29.4911 10.322C29.6004 10.2674 29.7096 10.2128 29.8188 10.1036C29.928 10.0489 30.0373 9.93972 30.2011 9.83049L30.0919 9.17514L28.6173 9.61204Z" fill="#012C63"/>
<path d="M45.6566 15.2916L43.6359 13.9262L42.7075 14.6362L40.9053 13.3801L47.0766 9.22949L48.988 10.5948L47.1312 17.6945L45.2743 16.4384L45.6566 15.2916ZM46.1481 13.8716L46.9673 11.414L44.892 12.9978L46.1481 13.8716Z" fill="#012C63"/>
<path d="M53.9029 15.51L54.9405 17.203L52.8652 21.299L56.2513 19.4422L57.2889 21.1898L51.1722 24.5758L50.1892 22.8828L52.2099 18.7868L48.8785 20.6437L47.8408 18.9506L53.9029 15.51Z" fill="#012C63"/>
<path d="M11.5781 14.1448L13.1619 12.7248L14.9641 14.5817L14.8003 11.1956L16.9302 9.28418L16.8756 12.834L21.7908 14.1994L19.8247 16.0016L16.7664 14.9093V16.4931L17.9133 17.6946L16.3295 19.1692L11.5781 14.1448Z" fill="#012C63"/>
<path d="M6.44434 23.1014L8.90193 17.9678L10.2673 18.5685L8.73809 21.7907L9.72113 22.2276L11.1411 19.2785L12.4518 19.8792L11.0318 22.8284L12.2879 23.4291L13.8717 20.0977L15.2917 20.753L12.7795 25.9959L6.44434 23.1014Z" fill="#012C63"/>
<path d="M14.3085 38.8301L15.9469 41.1784L12.9978 44.4006L17.1484 42.9261L18.7322 45.2198L12.8886 49.0427L11.9056 47.6228L16.3838 44.7283L11.141 46.5305L10.2672 45.2198L13.9262 41.1784L9.50257 44.1276L8.51953 42.653L14.3085 38.8301Z" fill="#012C63"/>
<path d="M53.2477 47.7868L47.2402 44.2369L49.0971 41.2332C49.2609 40.9601 49.4248 40.6871 49.5886 40.5232C49.7525 40.3048 49.8617 40.1955 50.0255 40.0317C50.1894 39.8679 50.2986 39.8133 50.4624 39.7586C50.6263 39.704 50.7901 39.6494 51.0086 39.6494C51.1724 39.6494 51.3909 39.6494 51.5547 39.704C51.7731 39.7586 51.937 39.8133 52.1554 39.9225C52.3193 40.0317 52.4831 40.1409 52.5923 40.2502C52.7016 40.3594 52.8108 40.4686 52.8654 40.6325C52.92 40.7963 53.0292 40.9055 53.0292 41.0694C53.0839 41.2332 53.0839 41.397 53.0839 41.5609C53.0839 41.6701 53.0839 41.7793 53.0292 41.8886C53.0292 42.0524 52.9746 42.1616 52.92 42.3255C53.0292 42.2162 53.1385 42.1616 53.1931 42.107C53.3023 42.0524 53.3569 41.9978 53.4115 41.9978C53.4662 41.9432 53.5208 41.9432 53.63 41.9432C53.6846 41.9432 53.7938 41.8886 53.9031 41.8886C54.0123 41.8886 54.1215 41.8339 54.2307 41.8339C54.34 41.8339 54.3946 41.8339 54.4492 41.8339L56.7429 41.9978L55.4868 44.0185L53.0292 43.9092C52.8654 43.9092 52.7562 43.9092 52.647 43.9092C52.5377 43.9092 52.4285 43.9092 52.3739 43.9639C52.2647 44.0185 52.21 44.0731 52.1554 44.1277C52.1008 44.1823 52.0462 44.2915 51.9916 44.3462L51.8824 44.51L54.34 45.9299L53.2477 47.7868ZM50.7901 43.9092L51.2816 43.1447C51.3362 43.0901 51.3362 43.0354 51.3908 42.9262C51.4455 42.817 51.5001 42.7078 51.5001 42.5985C51.5547 42.5439 51.5547 42.4347 51.5547 42.3801C51.5547 42.3255 51.5547 42.2709 51.5001 42.1616C51.4455 42.107 51.4455 42.0524 51.3908 41.9978C51.3362 41.9432 51.2816 41.8886 51.227 41.8339C51.1178 41.7793 51.0086 41.7247 50.9539 41.7247C50.8447 41.7247 50.7355 41.7247 50.6809 41.7247C50.5717 41.7793 50.517 41.8339 50.4078 41.9432C50.2986 42.0524 50.1894 42.1616 50.1347 42.3255L49.6432 43.1447L50.7901 43.9092Z" fill="#012C63"/>
<path d="M20.9172 53.1387L18.8419 51.8826L17.9681 52.6472L16.0566 51.5003L22.0095 47.0767L24.0302 48.2781L22.5556 55.4325L20.5895 54.2856L20.9172 53.1387ZM21.3541 51.6642L22.0095 49.152L20.0434 50.845L21.3541 51.6642Z" fill="#012C63"/>
<path d="M43.3633 46.9674L45.0563 45.6021L49.5892 50.8449L47.8962 52.2102L43.3633 46.9674Z" fill="#012C63"/>
<path d="M27.3065 49.5342L29.3272 49.8072L31.4571 53.9032L31.9486 50.1349L33.9693 50.3534L33.1501 57.1254L31.0748 56.907L28.9449 52.8656L28.508 56.5793L26.4873 56.3608L27.3065 49.5342Z" fill="#012C63"/>
<path d="M35.5527 50.1349L38.5565 49.0426C38.8841 48.9334 39.1572 48.8241 39.3757 48.8241C39.5941 48.7695 39.8672 48.7695 40.0856 48.7695C40.3041 48.7695 40.5225 48.8242 40.6864 48.8788C40.9048 48.9334 41.0687 49.0426 41.2325 49.0972C41.3963 49.2064 41.5602 49.3157 41.724 49.4795C41.8879 49.6433 41.9971 49.7526 42.1063 49.971C42.2155 50.1349 42.3248 50.3533 42.434 50.5172C42.5432 50.7356 42.6525 50.8995 42.7071 51.1725C42.8163 51.5002 42.9255 51.8279 42.9801 52.1009C43.0347 52.374 43.0894 52.6471 43.0894 52.8655C43.0894 53.084 43.0347 53.3024 42.9801 53.5209C42.9255 53.7393 42.8709 53.9032 42.7617 54.067C42.5978 54.3947 42.3248 54.7224 42.0517 54.8862C41.8333 55.0501 41.6694 55.1047 41.451 55.2139C41.2325 55.3231 41.0687 55.4323 40.9048 55.487L37.9011 56.5792L35.5527 50.1349ZM38.1742 50.8995L39.4849 54.3947L39.9764 54.2309C40.1949 54.1216 40.3587 54.067 40.5225 54.0124C40.6864 53.9032 40.741 53.8486 40.8502 53.794C40.9048 53.6847 41.0141 53.6301 41.0141 53.5209C41.0687 53.4117 41.0687 53.3024 41.0687 53.1386C41.0687 53.0294 41.0687 52.8655 41.0141 52.6471C40.9594 52.4286 40.9048 52.2102 40.7956 51.9917C40.6864 51.664 40.5225 51.3364 40.4133 51.1725C40.2495 50.9541 40.1402 50.7902 39.9764 50.7356C39.6487 50.5718 39.2118 50.5718 38.7203 50.7902L38.1742 50.8995Z" fill="#012C63"/>
<path d="M21.1907 35.1164V31.9488C21.1907 31.4573 21.1361 31.075 21.0268 30.9112C20.9722 30.8019 20.863 30.7473 20.7538 30.6927C20.5899 30.6381 20.4807 30.5289 20.2622 30.4743C20.2076 30.4743 20.153 30.4743 20.153 30.4196C20.0984 30.4196 20.0984 30.365 20.0984 30.365L20.0438 30.3104V30.2558V30.1466C20.0438 30.092 20.0438 30.092 20.0438 30.092L20.0984 30.0374L20.153 29.9827C20.2076 29.9827 20.2076 29.9281 20.2622 29.9281C20.5353 29.8189 20.8084 29.7643 21.0268 29.7097C21.2453 29.6004 21.4637 29.5458 21.6822 29.4912C22.1191 29.2728 22.556 29.0543 23.0475 28.7812C23.1021 28.7812 23.1567 28.7812 23.1567 28.7812C23.2114 28.7812 23.2114 28.7812 23.2114 28.8359C23.2114 28.8359 23.266 28.8359 23.266 28.8905C23.266 28.9451 23.266 28.9451 23.266 28.9997V30.4743C23.4298 30.3104 23.5937 30.1466 23.7575 30.0374C23.9213 29.8735 24.0852 29.7643 24.249 29.6551C24.6313 29.4366 24.959 29.2182 25.2867 29.1089C25.6143 28.9997 25.942 28.9451 26.2697 28.9451C26.652 28.9451 26.9797 28.9997 27.2527 29.1089C27.5258 29.2182 27.7989 29.382 28.0173 29.6004C28.1812 29.7097 28.2904 29.8735 28.345 30.0374C28.4542 30.2012 28.5088 30.365 28.5635 30.5835C28.7273 30.4196 28.8911 30.2558 29.1096 30.092C29.2734 29.9281 29.4373 29.8189 29.6557 29.7097C30.038 29.4912 30.3657 29.2728 30.748 29.1635C31.0757 29.0543 31.4033 28.9997 31.731 28.9997C32.1133 28.9997 32.441 29.0543 32.7141 29.1635C32.9871 29.2728 33.2602 29.4366 33.4787 29.6551C33.6971 29.8735 33.8609 30.092 33.9702 30.365C34.0794 30.6381 34.134 30.9658 34.134 31.2935V35.3348C34.134 35.6079 34.134 35.8264 34.134 36.0448C34.134 36.2086 34.1886 36.3725 34.2432 36.4271C34.2978 36.5363 34.3525 36.5909 34.4617 36.6456C34.5709 36.7002 34.6801 36.7548 34.7894 36.7548L35.1717 36.8094C35.2263 36.8094 35.2263 36.8094 35.2809 36.864C35.2809 36.864 35.3355 36.9186 35.3355 36.9732V37.3555C35.3355 37.4101 35.3355 37.4101 35.3355 37.4647C35.3355 37.4647 35.3355 37.5194 35.2809 37.5194C35.2809 37.5194 35.2263 37.5194 35.1717 37.5194C35.1171 37.5194 35.0624 37.5194 35.0078 37.5194C34.6255 37.4648 34.2978 37.4647 33.9702 37.4647C33.6425 37.4647 33.3694 37.4647 33.0964 37.4647C32.8233 37.4647 32.5502 37.4647 32.2225 37.4647C31.8949 37.4647 31.5672 37.5194 31.1849 37.5194C31.1303 37.5194 31.0757 37.5194 31.0211 37.5194C30.9664 37.5194 30.9664 37.5194 30.9664 37.5194C30.9118 37.5194 30.9118 37.5194 30.9118 37.4647C30.9118 37.4647 30.9118 37.4101 30.9118 37.3555V36.9732C30.9118 36.9186 30.9118 36.9186 30.9664 36.864C30.9664 36.8094 31.0211 36.8094 31.0757 36.8094L31.4033 36.7548C31.5672 36.7002 31.6218 36.7002 31.731 36.6456C31.8402 36.5909 31.8949 36.5363 31.8949 36.4271C31.9495 36.3179 31.9495 36.2086 32.0041 36.0448C32.0041 35.8264 32.0587 35.6079 32.0587 35.3348V31.785C32.0587 31.5665 32.0041 31.3481 31.9495 31.1842C31.8949 31.0204 31.7856 30.8566 31.6218 30.7473C31.5126 30.6381 31.3487 30.5289 31.1849 30.4743C31.021 30.4196 30.8026 30.365 30.5841 30.365C30.3657 30.365 30.0926 30.4196 29.9288 30.4743C29.7103 30.5289 29.4919 30.6381 29.2734 30.7473C29.1642 30.8566 29.055 30.9112 29.0004 30.9658C28.8911 31.075 28.8365 31.1296 28.7273 31.2388V35.3348C28.7273 35.6079 28.7273 35.8264 28.7819 36.0448C28.7819 36.2086 28.8365 36.3725 28.8365 36.4271C28.8911 36.5909 29.055 36.7002 29.328 36.7548L29.6557 36.8094C29.7103 36.8094 29.7649 36.8094 29.7649 36.864C29.8196 36.864 29.8196 36.9186 29.8196 36.9732V37.3555C29.8196 37.4101 29.8196 37.4101 29.8196 37.4647C29.8196 37.5194 29.8196 37.5194 29.7649 37.5194C29.7649 37.5194 29.7103 37.5194 29.6557 37.5194C29.6011 37.5194 29.5465 37.5194 29.4919 37.5194C29.1642 37.4648 28.8365 37.4647 28.5088 37.4647C28.1812 37.4647 27.9081 37.4647 27.635 37.4647C27.362 37.4647 27.0889 37.4647 26.7612 37.4647C26.4335 37.4647 26.1059 37.5194 25.7236 37.5194C25.669 37.5194 25.6143 37.5194 25.5597 37.5194C25.5051 37.5194 25.5051 37.5194 25.4505 37.5194C25.3959 37.5194 25.3959 37.5194 25.3959 37.4647C25.3959 37.4647 25.3959 37.4101 25.3959 37.3555V36.9732C25.3959 36.9186 25.3959 36.9186 25.4505 36.864C25.4505 36.8094 25.5051 36.8094 25.5597 36.8094L25.8874 36.7548C26.0512 36.7002 26.1059 36.7002 26.2151 36.6456C26.3243 36.5909 26.3789 36.5363 26.3789 36.4271C26.4335 36.3725 26.4335 36.2086 26.4882 36.0448C26.4882 35.8264 26.5428 35.6079 26.5428 35.3348V32.2219C26.5428 31.9488 26.4882 31.6757 26.4335 31.4573C26.3789 31.2388 26.2697 31.0204 26.1605 30.8565C25.9966 30.6927 25.8874 30.5835 25.7236 30.4743C25.5051 30.365 25.3413 30.365 25.1228 30.365C24.9044 30.365 24.6313 30.4196 24.4129 30.4743C24.1944 30.5289 23.9759 30.6381 23.7575 30.7473C23.6483 30.8566 23.539 30.9112 23.4844 30.9658C23.3752 31.075 23.3206 31.1296 23.2114 31.2388V35.3348C23.2114 35.6079 23.2114 35.8264 23.266 36.0448C23.266 36.2086 23.3206 36.3725 23.3206 36.4271C23.3752 36.5363 23.4298 36.5909 23.539 36.6456C23.6483 36.7002 23.7575 36.7548 23.8667 36.7548L24.1944 36.8094C24.249 36.8094 24.3036 36.8094 24.3036 36.864C24.3036 36.864 24.3036 36.9186 24.3036 36.9732V37.3555C24.3036 37.4101 24.3036 37.4101 24.3036 37.4647C24.3036 37.5194 24.249 37.5194 24.249 37.5194C24.249 37.5194 24.1944 37.5194 24.1398 37.5194C24.0852 37.5194 24.0306 37.5194 23.9759 37.5194C23.6483 37.4648 23.3206 37.4647 22.9929 37.4647C22.6652 37.4647 22.3922 37.4647 22.1191 37.4647C21.846 37.4647 21.573 37.4647 21.2453 37.4647C20.9176 37.4647 20.5899 37.5194 20.2622 37.5194C20.2076 37.5194 20.153 37.5194 20.0984 37.5194C20.0438 37.5194 20.0438 37.5194 19.9892 37.5194C19.9346 37.5194 19.9346 37.5194 19.9346 37.4647C19.9346 37.4647 19.9346 37.4101 19.9346 37.3555V36.9732C19.9346 36.9186 19.9346 36.9186 19.9892 36.864C19.9892 36.8094 20.0438 36.8094 20.0984 36.8094L20.4261 36.7548C20.5899 36.7002 20.6445 36.7002 20.7538 36.6456C20.863 36.5909 20.9176 36.5363 20.9722 36.4271C21.0268 36.3725 21.0268 36.2086 21.0268 36.0448C21.1361 35.6079 21.1907 35.3894 21.1907 35.1164ZM37.3016 31.075C37.1924 30.8566 37.0831 30.6381 37.0285 30.4743C36.9193 30.3104 36.8101 30.1466 36.7554 30.0374C36.6462 29.9281 36.5916 29.8189 36.4824 29.8189C36.3732 29.7643 36.3185 29.7097 36.2093 29.6551L35.9362 29.6004C35.8816 29.6004 35.827 29.5458 35.827 29.5458C35.7724 29.4912 35.7724 29.4912 35.7724 29.4366V29.0543C35.7724 28.9997 35.7724 28.9997 35.827 28.9451C35.827 28.9451 35.827 28.8905 35.8816 28.8905C35.8816 28.8905 35.9362 28.8359 35.9909 28.8359C36.0455 28.8359 36.1001 28.8359 36.1547 28.8359C36.537 28.8905 36.8647 28.8905 37.1923 28.8905C37.52 28.8905 37.8477 28.8905 38.1208 28.8905C38.3938 28.8905 38.6669 28.8905 38.9946 28.8905C39.3223 28.8905 39.6499 28.8359 40.0322 28.8359C40.0869 28.8359 40.1415 28.8359 40.1961 28.8359C40.2507 28.8359 40.2507 28.8359 40.3053 28.8359C40.3599 28.8359 40.3599 28.8359 40.3599 28.8905C40.3599 28.8905 40.3599 28.9451 40.3599 28.9997V29.382C40.3599 29.4366 40.3599 29.4366 40.3053 29.4912C40.3053 29.4912 40.2507 29.5458 40.1961 29.5458L39.8684 29.6004C39.7592 29.6551 39.6499 29.6551 39.5953 29.7097C39.4861 29.7643 39.4861 29.8189 39.4315 29.8735C39.3769 30.0374 39.4315 30.2012 39.5407 30.4743L41.2337 34.5156L42.9813 30.4743C43.0906 30.2012 43.1452 30.0374 43.0906 29.8735C43.0906 29.8189 43.036 29.7643 42.9813 29.7097C42.9267 29.6551 42.8175 29.6551 42.7083 29.6004L42.3806 29.5458C42.326 29.5458 42.2714 29.4912 42.2714 29.4912C42.2714 29.4366 42.2168 29.4366 42.2168 29.382V28.9997C42.2168 28.9451 42.2168 28.9451 42.2168 28.8905C42.2168 28.8359 42.2168 28.8359 42.2714 28.8359C42.2714 28.8359 42.326 28.8359 42.3806 28.8359C42.4352 28.8359 42.4898 28.8359 42.5444 28.8359C42.7629 28.8905 42.9813 28.8905 43.1452 28.8905C43.3636 28.8905 43.5275 28.8905 43.6913 28.8905C43.8552 28.8905 44.019 28.8905 44.2374 28.8905C44.4559 28.8905 44.6744 28.8359 44.8928 28.8359C44.9474 28.8359 45.002 28.8359 45.0566 28.8359C45.1113 28.8359 45.1113 28.8359 45.1659 28.8359C45.2205 28.8359 45.2205 28.8359 45.2205 28.8905C45.2205 28.8905 45.2205 28.9451 45.2205 28.9997V29.382C45.2205 29.4366 45.2205 29.4366 45.1659 29.4912C45.1659 29.4912 45.1113 29.5458 45.0566 29.5458L44.7836 29.6004C44.6744 29.6004 44.6197 29.6551 44.5651 29.7643C44.4559 29.8735 44.4013 29.9827 44.2921 30.092C44.1828 30.2012 44.0736 30.365 43.9644 30.6381C43.8552 30.8565 43.7459 31.1296 43.5821 31.4573L40.9607 37.3555C40.9607 37.4101 40.9607 37.4101 40.9061 37.4101C40.9061 37.4101 40.8514 37.4101 40.7968 37.4101H40.5784H40.3599H40.3053L40.2507 37.3555L37.3016 31.075Z" fill="#012C63"/>
<path fill-rule="evenodd" clip-rule="evenodd" d="M45.0008 26.269L41.8333 24.6306L42.1063 25.7775H35.5527V26.979L42.0517 26.9244L41.8879 27.962L45.0008 26.269Z" fill="#012C63"/>
<path fill-rule="evenodd" clip-rule="evenodd" d="M31.8395 13.9265C41.5061 13.9265 49.3157 21.5724 49.3157 31.0205C49.3157 40.4685 41.4514 48.1144 31.8395 48.1144C22.2276 48.1144 14.3633 40.4685 14.3633 31.0205C14.3633 21.5724 22.173 13.9265 31.8395 13.9265ZM31.8395 16.3841C40.1407 16.3841 46.8581 22.9377 46.8581 31.0205C46.8581 39.1032 40.1407 45.7114 31.8395 45.7114C23.5383 45.7114 16.8209 39.1578 16.8209 31.0205C16.8209 22.9377 23.5383 16.3841 31.8395 16.3841Z" fill="#012C63"/>
<path fill-rule="evenodd" clip-rule="evenodd" d="M31.8395 0C49.425 0 63.679 13.8718 63.679 31.0749C63.679 48.2235 49.425 62.1498 31.8395 62.1498C14.2541 62.1498 0 48.2235 0 31.0749C0.0546132 13.8718 14.2541 0 31.8395 0ZM31.8395 2.56682C47.9504 2.56682 61.0576 15.3463 61.0576 31.0749C61.0576 46.8035 48.005 59.583 31.8395 59.583C15.674 59.583 2.62144 46.8035 2.62144 31.0749C2.67605 15.2917 15.7286 2.56682 31.8395 2.56682Z" fill="#012C63"/>
<path d="M100.16 9.22965V40.0315H91.3673V19.2785L87.8721 40.0315H81.6461L77.9325 19.7154V40.0315H69.1943V9.22965H82.1923C82.5746 11.0865 82.9569 13.271 83.3938 15.7832L84.7591 23.6475L87.0529 9.28426H100.16V9.22965ZM127.139 27.252C127.139 30.365 127.03 32.5495 126.866 33.8056C126.702 35.1163 126.101 36.2632 125.118 37.3555C124.19 38.4477 122.879 39.2123 121.241 39.8131C119.602 40.3592 117.691 40.6869 115.506 40.6869C113.431 40.6869 111.574 40.4138 109.936 39.8677C108.297 39.3215 106.987 38.5023 105.949 37.4647C104.966 36.3724 104.365 35.2255 104.147 33.9694C103.983 32.7133 103.874 30.4742 103.874 27.3066V22.0638C103.874 18.9508 103.983 16.7663 104.147 15.5102C104.311 14.1995 104.911 13.0526 105.84 11.9603C106.823 10.9227 108.079 10.1035 109.717 9.50272C111.356 8.95658 113.267 8.62891 115.452 8.62891C117.527 8.62891 119.384 8.90197 121.022 9.4481C122.661 9.99424 123.971 10.8134 125.009 11.8511C125.992 12.9434 126.593 14.0902 126.811 15.4009C126.975 16.657 127.084 18.8962 127.084 22.0638V27.252H127.139ZM117.09 17.1486C117.09 15.7286 116.981 14.8002 116.817 14.4179C116.599 14.0356 116.216 13.8172 115.616 13.8172C115.069 13.8172 114.687 13.981 114.414 14.3087C114.141 14.6364 113.977 15.5648 113.977 17.1486V31.5118C113.977 33.3141 114.086 34.4063 114.25 34.8432C114.414 35.2802 114.851 35.4986 115.506 35.4986C116.216 35.4986 116.599 35.2802 116.817 34.7886C116.981 34.2971 117.09 33.1502 117.09 31.348V17.1486ZM161.873 9.22965V40.0315H153.08V19.2785L149.585 40.0315H143.359L139.645 19.7154V40.0315H130.907V9.22965H143.905C144.288 11.0865 144.724 13.271 145.107 15.7832L146.472 23.6475L148.766 9.28426H161.873V9.22965ZM165.914 9.22965H182.681V15.4009H175.963V21.2446H182.244V27.0882H175.963V33.8602H183.336V40.0315H165.914V9.22965ZM208.622 9.22965V40.0315H199.829L194.586 26.0505V40.0315H186.176V9.22965H194.586L200.211 23.1014V9.22965H208.622ZM232.87 9.22965V15.4009H226.917V40.0315H216.868V15.4009H210.916V9.22965H232.87ZM258.047 9.22965V29.8188C258.047 32.1672 257.938 33.8056 257.774 34.734C257.61 35.6624 257.009 36.6455 256.081 37.6285C255.152 38.6116 253.896 39.3761 252.367 39.8677C250.838 40.3592 249.036 40.6322 246.96 40.6322C244.667 40.6322 242.591 40.3046 240.844 39.7038C239.096 39.1031 237.785 38.2839 236.912 37.3008C236.038 36.3178 235.492 35.2802 235.382 34.1879C235.219 33.0956 235.164 30.8019 235.164 27.3612V9.22965H245.213V32.2764C245.213 33.6418 245.267 34.461 245.486 34.8432C245.65 35.2255 246.032 35.3894 246.578 35.3894C247.233 35.3894 247.616 35.1709 247.78 34.7886C247.943 34.3517 248.053 33.4233 248.053 31.8941V9.22965H258.047ZM292.89 9.22965V40.0315H284.097V19.2785L280.602 40.0315H274.376L270.663 19.7154V40.0315H261.87V9.22965H274.868C275.25 11.0865 275.632 13.271 276.069 15.7832L277.435 23.6475L279.728 9.28426H292.89V9.22965Z" fill="#012C63"/>
<path d="M68.8672 53.4664V46.2575H70.3418V53.4664H68.8672ZM71.7071 53.4664V46.2575H73.1816V53.4664H71.7071ZM76.1854 53.4664V47.459H74.0554V46.2575H79.7898V47.459H77.6599V53.4664H76.1854ZM80.2267 51.9919L81.5921 51.7734C81.6467 52.0465 81.7559 52.2649 81.9744 52.3742C82.1382 52.538 82.4113 52.5926 82.7389 52.5926C82.9028 52.5926 83.0666 52.5926 83.1759 52.538C83.2851 52.538 83.3943 52.4834 83.5035 52.4288C83.5582 52.3742 83.6674 52.3196 83.6674 52.265C83.722 52.2103 83.722 52.1011 83.722 52.0465C83.722 51.9919 83.722 51.9373 83.722 51.8827C83.722 51.828 83.6674 51.828 83.6674 51.7734C83.6128 51.7188 83.5582 51.7188 83.5035 51.6642C83.4489 51.6642 83.3397 51.6096 83.2305 51.6096C82.6843 51.5004 82.1928 51.3911 81.8105 51.2819C81.4282 51.1727 81.2098 51.0635 81.0459 50.9542C80.8275 50.845 80.7183 50.6266 80.609 50.4627C80.4998 50.2989 80.4452 50.0804 80.4452 49.8074C80.4452 49.5889 80.4998 49.3705 80.609 49.152C80.7183 48.9335 80.8275 48.7697 81.0459 48.6605C81.2098 48.4966 81.4828 48.3874 81.7559 48.3328C82.029 48.2782 82.3567 48.2236 82.6843 48.2236C83.012 48.2236 83.3397 48.2236 83.5581 48.2782C83.8312 48.3328 84.0497 48.3874 84.2135 48.5513C84.3773 48.6605 84.5412 48.7697 84.705 48.9882C84.8142 49.152 84.9235 49.3704 84.9781 49.5889L83.6674 49.8074C83.6128 49.5889 83.5035 49.4251 83.3397 49.3158C83.1758 49.2066 82.9574 49.152 82.6843 49.152C82.5205 49.152 82.3567 49.152 82.2474 49.152C82.1382 49.152 82.029 49.2066 81.9744 49.2612C81.9197 49.3158 81.8651 49.3705 81.8105 49.4251C81.7559 49.4797 81.7559 49.5343 81.7559 49.5889C81.7559 49.6435 81.7559 49.6981 81.8105 49.7527C81.8651 49.8074 81.8651 49.862 81.9744 49.862C82.029 49.9166 82.1928 49.9166 82.3567 50.0258C82.5751 50.0804 82.8482 50.135 83.1759 50.2443C83.5581 50.3535 83.8858 50.4081 84.1589 50.5173C84.432 50.6266 84.5958 50.7358 84.7596 50.845C84.8689 50.9542 84.9781 51.1181 85.0873 51.2819C85.1419 51.4458 85.1965 51.6642 85.1965 51.828C85.1965 52.1011 85.1419 52.3196 85.0327 52.538C84.9235 52.7565 84.7596 52.9203 84.5412 53.0841C84.3227 53.248 84.0497 53.3572 83.7766 53.4664C83.5035 53.5211 83.1212 53.5757 82.7936 53.5757C82.4659 53.5757 82.1382 53.5757 81.8651 53.4664C81.5921 53.4118 81.319 53.3026 81.1005 53.1388C80.8821 53.0295 80.7183 52.8657 80.5544 52.6472C80.4452 52.4834 80.336 52.265 80.2267 51.9919ZM89.1287 53.4664V46.2575H90.6033V53.4664H89.1287ZM94.8085 53.4664V46.2575H96.2284L99.1775 51.0635V46.2575H100.543V53.4664H99.0683L96.1192 48.7697V53.4664H94.8085ZM102.072 53.4664V46.2575H103.547V53.4664H102.072ZM106.55 53.4664V47.459H104.42V46.2575H110.155V47.459H108.025V53.4664H106.55ZM110.592 51.9919L111.957 51.7734C112.012 52.0465 112.121 52.2649 112.339 52.3742C112.503 52.538 112.776 52.5926 113.104 52.5926C113.268 52.5926 113.432 52.5926 113.541 52.538C113.65 52.538 113.759 52.4834 113.868 52.4288C113.923 52.3742 114.032 52.3196 114.032 52.265C114.032 52.2103 114.087 52.1011 114.087 52.0465C114.087 51.9919 114.087 51.9373 114.087 51.8827C114.087 51.828 114.032 51.828 113.978 51.7734C113.978 51.7188 113.923 51.7188 113.814 51.6642C113.759 51.6642 113.65 51.6096 113.541 51.6096C112.995 51.5004 112.503 51.3911 112.175 51.2819C111.793 51.1727 111.52 51.0635 111.411 50.9542C111.247 50.845 111.083 50.6266 110.974 50.4627C110.865 50.2989 110.81 50.0804 110.81 49.8074C110.81 49.5889 110.865 49.3705 110.974 49.152C111.083 48.9335 111.192 48.7697 111.411 48.6605C111.575 48.4966 111.848 48.3874 112.121 48.3328C112.394 48.2782 112.722 48.2236 113.049 48.2236C113.377 48.2236 113.705 48.2236 113.978 48.2782C114.251 48.3328 114.469 48.3874 114.633 48.5513C114.797 48.6605 114.961 48.7697 115.07 48.9882C115.179 49.152 115.288 49.3704 115.343 49.5889L114.032 49.8074C113.978 49.5889 113.868 49.4251 113.705 49.3158C113.541 49.2066 113.322 49.152 113.049 49.152C112.885 49.152 112.722 49.152 112.612 49.152C112.503 49.152 112.394 49.2066 112.339 49.2612C112.285 49.3158 112.23 49.3705 112.175 49.4251C112.175 49.4797 112.121 49.5343 112.121 49.5889C112.121 49.6435 112.121 49.6981 112.175 49.7527C112.175 49.8074 112.23 49.862 112.339 49.862C112.394 49.9166 112.558 49.9166 112.722 50.0258C112.94 50.0804 113.213 50.135 113.541 50.2443C113.923 50.3535 114.251 50.4081 114.524 50.5173C114.797 50.6266 115.015 50.7358 115.125 50.845C115.234 50.9542 115.343 51.1181 115.452 51.2819C115.507 51.4458 115.561 51.6642 115.561 51.828C115.561 52.1011 115.507 52.3196 115.398 52.538C115.288 52.7565 115.125 52.9203 114.906 53.0841C114.688 53.248 114.415 53.3572 114.142 53.4664C113.868 53.5211 113.486 53.5757 113.159 53.5757C112.831 53.5757 112.503 53.5757 112.23 53.4664C111.957 53.4118 111.684 53.3026 111.465 53.1388C111.247 53.0295 111.083 52.8657 110.919 52.6472C110.81 52.4834 110.701 52.265 110.592 51.9919ZM119.494 53.4664V46.2575H120.968V53.4664H119.494ZM125.119 53.4664V46.2575H126.593V53.4664H125.119ZM127.904 53.4664V46.2575H129.379V53.4664H127.904ZM130.744 53.4664V46.2575H132.219V53.4664H130.744ZM135.222 53.4664V47.459H133.092V46.2575H138.827V47.459H136.697V53.4664H135.222ZM139.264 51.9919L140.629 51.7734C140.684 52.0465 140.793 52.2649 141.011 52.3742C141.175 52.538 141.448 52.5926 141.776 52.5926C141.94 52.5926 142.104 52.5926 142.213 52.538C142.322 52.538 142.431 52.4834 142.54 52.4288C142.595 52.3742 142.65 52.3196 142.704 52.265C142.759 52.2103 142.759 52.1011 142.759 52.0465C142.759 51.9919 142.759 51.9373 142.759 51.8827C142.759 51.828 142.704 51.828 142.704 51.7734C142.65 51.7188 142.595 51.7188 142.54 51.6642C142.486 51.6642 142.377 51.6096 142.267 51.6096C141.721 51.5004 141.23 51.3911 140.847 51.2819C140.465 51.1727 140.247 51.0635 140.083 50.9542C139.919 50.845 139.755 50.6266 139.646 50.4627C139.537 50.2989 139.482 50.0804 139.482 49.8074C139.482 49.5889 139.537 49.3705 139.646 49.152C139.755 48.9335 139.864 48.7697 140.083 48.6605C140.301 48.4966 140.52 48.3874 140.793 48.3328C141.066 48.2782 141.394 48.2236 141.721 48.2236C142.049 48.2236 142.377 48.2236 142.595 48.2782C142.868 48.3328 143.087 48.3874 143.25 48.5513C143.414 48.6605 143.578 48.7697 143.687 48.9882C143.797 49.152 143.906 49.3704 143.96 49.5889L142.65 49.8074C142.595 49.5889 142.486 49.4251 142.322 49.3158C142.158 49.2066 141.94 49.152 141.667 49.152C141.503 49.152 141.339 49.152 141.23 49.152C141.12 49.152 141.011 49.2066 140.957 49.2612C140.902 49.3158 140.847 49.3705 140.793 49.4251C140.738 49.4797 140.738 49.5343 140.738 49.5889C140.738 49.6435 140.738 49.6981 140.793 49.7527C140.847 49.8074 140.847 49.862 140.957 49.862C141.011 49.9166 141.175 49.9166 141.394 50.0258C141.612 50.0804 141.885 50.135 142.213 50.2443C142.595 50.3535 142.923 50.4081 143.196 50.5173C143.469 50.6266 143.633 50.7358 143.797 50.845C143.906 50.9542 144.015 51.1181 144.07 51.2819C144.124 51.4458 144.179 51.6642 144.179 51.828C144.179 52.1011 144.124 52.3196 144.015 52.538C143.906 52.7565 143.742 52.9203 143.523 53.0841C143.305 53.248 143.032 53.3572 142.759 53.4664C142.486 53.5211 142.158 53.5757 141.776 53.5757C141.448 53.5757 141.12 53.5757 140.847 53.4664C140.574 53.4118 140.301 53.3026 140.083 53.1388C139.864 53.0295 139.701 52.8657 139.537 52.6472C139.482 52.4834 139.373 52.265 139.264 51.9919ZM148.166 53.4664V46.2575H149.64V53.4664H148.166ZM153.845 46.2575H156.74C157.559 46.2575 158.105 46.3121 158.433 46.4213C158.597 46.476 158.761 46.5306 158.87 46.6398C158.979 46.749 159.143 46.8582 159.252 47.0221C159.361 47.1859 159.471 47.3498 159.525 47.5136C159.58 47.6774 159.58 47.8413 159.58 48.0597C159.58 48.2236 159.58 48.3874 159.525 48.5513C159.471 48.7151 159.416 48.8789 159.307 48.9882C159.197 49.0974 159.088 49.2612 158.979 49.3704C158.87 49.4797 158.706 49.5343 158.597 49.6435C158.815 49.6981 158.979 49.8074 159.197 49.9166C159.361 50.0258 159.525 50.135 159.634 50.2989C159.744 50.4627 159.853 50.6266 159.907 50.7904C159.962 50.9542 160.017 51.1727 160.017 51.3911C160.017 51.6642 159.962 51.8827 159.907 52.1011C159.853 52.3196 159.744 52.538 159.58 52.7019C159.416 52.8657 159.252 53.0295 159.088 53.1388C158.924 53.248 158.706 53.3026 158.487 53.3572C158.324 53.4118 158.105 53.4118 157.778 53.4118C157.45 53.4118 157.013 53.4118 156.467 53.4118H153.845V46.2575ZM155.32 47.459V49.152H156.248C156.849 49.152 157.177 49.152 157.341 49.152C157.45 49.152 157.559 49.0974 157.668 49.0428C157.778 48.9882 157.832 48.9335 157.887 48.8789C157.941 48.8243 157.996 48.7151 158.051 48.6059C158.051 48.4966 158.105 48.3874 158.105 48.2782C158.105 48.169 158.105 48.0597 158.051 48.0051C158.051 47.8959 157.996 47.8413 157.941 47.7867C157.887 47.7321 157.832 47.6774 157.778 47.6228C157.723 47.5682 157.668 47.5682 157.559 47.5136C157.504 47.5136 157.341 47.5136 157.068 47.459C156.849 47.459 156.521 47.459 156.139 47.459H155.32ZM155.32 50.3535V52.265H156.685C157.013 52.265 157.231 52.265 157.45 52.265C157.614 52.265 157.777 52.2649 157.832 52.2103C157.887 52.2103 157.996 52.1557 158.051 52.1011C158.105 52.0465 158.16 51.9919 158.214 51.9373C158.269 51.8827 158.324 51.7734 158.324 51.6642C158.324 51.555 158.378 51.4458 158.378 51.3365C158.378 51.2273 158.378 51.1181 158.324 51.0088C158.269 50.8996 158.269 50.845 158.16 50.7358C158.105 50.6812 158.051 50.6266 157.941 50.5719C157.832 50.5173 157.778 50.4627 157.668 50.4627C157.559 50.4627 157.45 50.4081 157.231 50.4081C157.013 50.4081 156.794 50.4081 156.467 50.4081L155.32 50.3535ZM161.109 53.4664V46.2575H162.583V53.4664H161.109ZM165.587 53.4664V47.459H163.457V46.2575H169.192V47.459H167.062V53.4664H165.587ZM169.792 51.1181L171.212 51.0088C171.267 51.4458 171.485 51.828 171.758 52.0465C172.032 52.2649 172.359 52.3742 172.796 52.3742C173.015 52.3742 173.178 52.3742 173.397 52.3196C173.561 52.2649 173.725 52.2103 173.834 52.1011C173.943 51.9919 174.052 51.8827 174.107 51.7734C174.161 51.6642 174.216 51.555 174.216 51.3911C174.216 51.3365 174.216 51.2273 174.216 51.1727C174.216 51.1181 174.161 51.0635 174.107 50.9542C174.052 50.8996 173.998 50.845 173.943 50.7904C173.888 50.7358 173.779 50.6812 173.725 50.6812C173.67 50.6812 173.506 50.6266 173.288 50.5719C173.069 50.5173 172.796 50.4081 172.414 50.3535C172.086 50.2989 171.813 50.1896 171.595 50.135C171.376 50.0804 171.158 49.9712 171.049 49.862C170.885 49.7527 170.775 49.6435 170.666 49.5343C170.557 49.4251 170.448 49.2612 170.339 49.152C170.284 48.9882 170.175 48.8243 170.175 48.7151C170.12 48.5513 170.12 48.3874 170.12 48.2236C170.12 47.8413 170.229 47.459 170.448 47.1859C170.557 47.0221 170.666 46.9129 170.83 46.749C170.994 46.6398 171.158 46.5306 171.322 46.4759C171.54 46.4213 171.758 46.3667 171.977 46.3121C172.195 46.2575 172.468 46.2575 172.742 46.2575C173.178 46.2575 173.561 46.3121 173.888 46.4213C174.216 46.5306 174.489 46.6398 174.762 46.8582C174.981 47.0221 175.199 47.2951 175.308 47.5682C175.418 47.8413 175.472 48.169 175.527 48.4966L174.052 48.5513C173.998 48.3874 173.943 48.2236 173.888 48.0597C173.834 47.8959 173.725 47.8413 173.615 47.7321C173.506 47.6774 173.397 47.6228 173.233 47.5682C173.069 47.5136 172.905 47.5136 172.687 47.5136C172.468 47.5136 172.305 47.5136 172.141 47.5682C171.977 47.5682 171.868 47.6228 171.758 47.7321C171.649 47.7867 171.54 47.8413 171.54 47.9505C171.485 48.0597 171.485 48.1143 171.485 48.2236C171.485 48.3328 171.485 48.3874 171.54 48.4966C171.595 48.5512 171.649 48.6605 171.758 48.7151C171.868 48.7697 172.032 48.8243 172.25 48.9335C172.468 48.9882 172.742 49.0974 173.124 49.152C173.888 49.3158 174.38 49.5343 174.708 49.6981C174.871 49.8074 175.035 49.9166 175.145 50.0258C175.254 50.135 175.363 50.2989 175.472 50.4627C175.581 50.6266 175.636 50.7904 175.691 50.9542C175.745 51.1181 175.745 51.3365 175.745 51.555C175.745 51.8827 175.691 52.1557 175.581 52.4288C175.472 52.7019 175.308 52.9203 175.035 53.1388C174.817 53.3572 174.489 53.5211 174.107 53.6303C173.725 53.7395 173.288 53.7941 172.796 53.7941C170.939 53.6303 169.956 52.8111 169.792 51.1181ZM179.677 53.4664V46.2575H181.152V53.4664H179.677ZM185.303 53.4664V46.2575H187.487L188.798 51.1727L190.109 46.2575H192.293V53.4664H190.982V47.7867L189.562 53.4664H188.142L186.723 47.7867V53.4664H185.303ZM196.826 51.828L198.191 52.0465C198.082 52.3196 197.973 52.538 197.864 52.7565C197.7 52.9203 197.536 53.0842 197.372 53.248C197.154 53.3572 196.935 53.4664 196.717 53.5211C196.498 53.5757 196.225 53.6303 195.952 53.6303C195.57 53.6303 195.188 53.5757 194.914 53.4664C194.587 53.3572 194.368 53.1934 194.15 52.9749C193.877 52.7565 193.713 52.4288 193.604 52.1011C193.495 51.7734 193.44 51.3365 193.44 50.8996C193.44 50.4627 193.495 50.0804 193.604 49.6981C193.713 49.3705 193.931 49.0428 194.15 48.7697C194.368 48.5512 194.587 48.3874 194.914 48.2782C195.188 48.169 195.515 48.1143 195.843 48.1143C196.225 48.1143 196.553 48.169 196.826 48.2782C197.099 48.3874 197.372 48.5512 197.591 48.7697C198.082 49.2612 198.355 50.0258 198.355 51.0635V51.2273H194.86C194.86 51.4457 194.86 51.6096 194.969 51.7734C195.024 51.9373 195.078 52.0465 195.188 52.1557C195.297 52.265 195.406 52.3742 195.57 52.4288C195.679 52.4834 195.843 52.4834 196.007 52.4834C196.225 52.4834 196.444 52.4288 196.553 52.3196C196.608 52.2649 196.717 52.0465 196.826 51.828ZM196.881 50.4081C196.881 50.1896 196.826 50.0258 196.771 49.862C196.717 49.6981 196.662 49.5889 196.553 49.4797C196.444 49.3704 196.334 49.3158 196.225 49.2612C196.116 49.2066 196.007 49.2066 195.843 49.2066C195.679 49.2066 195.57 49.2066 195.461 49.2612C195.351 49.3158 195.242 49.3704 195.133 49.4797C194.914 49.6981 194.805 50.0258 194.86 50.3535L196.881 50.4081ZM204.199 53.4664H202.888V52.7019C202.779 52.8657 202.67 52.9749 202.56 53.0841C202.451 53.1934 202.287 53.3026 202.178 53.3572C202.014 53.4118 201.905 53.4664 201.741 53.5211C201.577 53.5757 201.413 53.5757 201.304 53.5757C201.031 53.5757 200.704 53.5211 200.485 53.4118C200.267 53.3026 199.993 53.0841 199.775 52.8657C199.557 52.6472 199.393 52.3196 199.284 51.9919C199.174 51.6642 199.12 51.2819 199.12 50.845C199.12 50.4081 199.174 49.9712 199.284 49.6435C199.393 49.3158 199.557 49.0428 199.775 48.7697C199.993 48.4966 200.212 48.3874 200.485 48.2782C200.758 48.169 201.031 48.1143 201.359 48.1143C201.523 48.1143 201.632 48.1143 201.796 48.169C201.96 48.169 202.069 48.2236 202.178 48.2782C202.451 48.3874 202.67 48.6059 202.888 48.8243V46.2029H204.253L204.199 53.4664ZM200.485 50.7358C200.485 51.2273 200.54 51.555 200.649 51.7734C200.703 51.8827 200.758 51.9919 200.813 52.0465C200.867 52.1557 200.977 52.2103 201.031 52.265C201.14 52.3196 201.195 52.3742 201.304 52.3742C201.413 52.3742 201.523 52.4288 201.632 52.4288C201.796 52.4288 201.905 52.4288 202.069 52.3196C202.178 52.2649 202.342 52.1557 202.451 51.9919C202.56 51.8827 202.615 51.7188 202.67 51.5004C202.724 51.2819 202.724 51.0635 202.724 50.7904C202.724 50.1897 202.615 49.7527 202.397 49.4797C202.287 49.3704 202.178 49.2612 202.014 49.2066C201.905 49.152 201.741 49.0974 201.577 49.0974C201.413 49.0974 201.25 49.152 201.14 49.2066C201.031 49.2612 200.867 49.3704 200.758 49.4797C200.649 49.5889 200.54 49.7527 200.485 49.9712C200.54 50.2989 200.485 50.5173 200.485 50.7358ZM205.564 47.5682V46.3121H206.984V47.5682H205.564ZM205.564 53.4664V48.2782H206.984V53.5211H205.564V53.4664ZM212.937 49.8074L211.572 50.0258C211.517 49.7527 211.408 49.5343 211.244 49.4251C211.08 49.3158 210.862 49.2066 210.589 49.2066C210.425 49.2066 210.261 49.2066 210.152 49.2612C210.042 49.3158 209.879 49.4251 209.769 49.5343C209.66 49.6435 209.605 49.8074 209.551 50.0258C209.496 50.2443 209.496 50.4627 209.496 50.7358C209.496 51.0635 209.496 51.3365 209.551 51.555C209.605 51.7734 209.66 51.9373 209.769 52.1011C209.879 52.2103 209.988 52.3196 210.152 52.3742C210.315 52.4288 210.425 52.4834 210.643 52.4834C210.752 52.4834 210.916 52.4834 211.025 52.4288C211.135 52.3742 211.244 52.3196 211.298 52.265C211.353 52.2103 211.462 52.1011 211.517 51.9373C211.572 51.828 211.626 51.6642 211.681 51.4458L213.046 51.6642C212.937 52.3196 212.609 52.7565 212.227 53.0841C211.845 53.4118 211.298 53.5757 210.589 53.5757C210.152 53.5757 209.769 53.5211 209.496 53.3572C209.169 53.248 208.895 53.0295 208.732 52.7565C208.513 52.4834 208.349 52.2103 208.24 51.8827C208.131 51.555 208.076 51.2273 208.076 50.845C208.076 50.4081 208.131 49.9712 208.24 49.6435C208.349 49.3158 208.513 48.9882 208.786 48.7697C209.005 48.5512 209.278 48.3874 209.605 48.2236C209.933 48.1143 210.261 48.0597 210.643 48.0597C210.971 48.0597 211.244 48.0597 211.517 48.169C211.79 48.2236 212.008 48.3328 212.172 48.442C212.391 48.5513 212.555 48.7697 212.664 48.9335C212.773 49.2612 212.882 49.5343 212.937 49.8074ZM215.012 49.862L213.756 49.6435C213.811 49.3704 213.92 49.152 214.084 48.9335C214.193 48.7697 214.357 48.6059 214.521 48.4966C214.684 48.3874 214.903 48.2782 215.176 48.2236C215.449 48.169 215.722 48.169 216.05 48.169C216.323 48.169 216.596 48.169 216.814 48.2236C217.033 48.2782 217.251 48.2782 217.361 48.3874C217.688 48.4966 217.907 48.7151 218.016 48.9335C218.07 49.0428 218.125 49.2066 218.18 49.4251C218.18 49.6435 218.234 49.862 218.234 50.1896V51.828C218.234 52.0465 218.234 52.265 218.234 52.4288C218.234 52.5926 218.234 52.7565 218.289 52.8657C218.289 52.9749 218.344 53.0841 218.398 53.1934C218.453 53.3026 218.507 53.4118 218.562 53.5757H217.197L217.033 52.9749C216.924 53.0842 216.814 53.1934 216.651 53.3026C216.541 53.3572 216.377 53.4664 216.268 53.5211C216.159 53.5757 215.995 53.6303 215.831 53.6303C215.668 53.6303 215.558 53.6849 215.394 53.6849C215.121 53.6849 214.903 53.6849 214.684 53.5757C214.466 53.5211 214.302 53.4118 214.138 53.248C213.975 53.0842 213.865 52.9203 213.756 52.7565C213.647 52.5926 213.647 52.3742 213.647 52.1011C213.647 51.9919 213.647 51.828 213.701 51.6642C213.756 51.555 213.756 51.4458 213.865 51.3365C213.92 51.2273 214.029 51.1181 214.084 51.0635C214.193 50.9542 214.302 50.8996 214.411 50.845C214.521 50.7904 214.684 50.7358 214.903 50.6812C215.067 50.6266 215.34 50.5719 215.613 50.5173C215.941 50.4627 216.214 50.4081 216.432 50.3535C216.651 50.2989 216.814 50.2443 216.978 50.1896C216.978 50.0258 216.978 49.9166 216.978 49.8074C216.978 49.6981 216.924 49.6435 216.924 49.5889C216.924 49.5343 216.869 49.4797 216.814 49.4797C216.76 49.4251 216.705 49.4251 216.651 49.3704C216.596 49.3704 216.487 49.3158 216.432 49.3158C216.323 49.3158 216.214 49.3158 216.104 49.3158C215.995 49.3158 215.886 49.3158 215.777 49.3704C215.668 49.3704 215.613 49.4251 215.504 49.4797C215.449 49.5343 215.394 49.5889 215.34 49.6981C215.121 49.5889 215.067 49.6981 215.012 49.862ZM216.869 50.9542C216.76 51.0088 216.651 51.0088 216.541 51.0635C216.432 51.0635 216.268 51.1181 216.05 51.1727C215.831 51.2273 215.668 51.2819 215.504 51.3365C215.34 51.3911 215.285 51.4457 215.176 51.5004C215.121 51.555 215.067 51.6096 215.012 51.6642C214.958 51.7188 214.958 51.828 214.958 51.8827C214.958 51.9919 214.958 52.0465 215.012 52.1557C215.067 52.2103 215.121 52.3196 215.176 52.3742C215.231 52.4288 215.34 52.4834 215.449 52.538C215.558 52.5926 215.613 52.5926 215.777 52.5926C215.886 52.5926 215.941 52.5926 216.05 52.5926C216.159 52.5926 216.214 52.538 216.323 52.4834C216.432 52.4288 216.487 52.3742 216.541 52.3196C216.596 52.2649 216.651 52.2103 216.705 52.1011C216.76 52.0465 216.76 51.9373 216.76 51.7734C216.76 51.6642 216.76 51.5004 216.76 51.2819V50.9542H216.869ZM219.6 53.4664V46.2575H221.02V53.4664H219.6ZM225.225 53.4664V46.2575H226.699V53.4664H225.225ZM230.905 53.4664V46.2575H232.379V49.4797L235.328 46.2575H237.294L234.564 49.0428L237.404 53.4664H235.547L233.526 50.0804L232.325 51.2819V53.4664H230.905ZM240.025 53.4664L237.404 46.2575H238.987L240.79 51.6096L242.537 46.2575H244.066L241.5 53.4664H240.025ZM244.94 53.4664V46.2575H247.289C247.725 46.2575 248.108 46.2575 248.381 46.2575C248.654 46.2575 248.872 46.3121 249.036 46.3121C249.255 46.3667 249.473 46.4213 249.637 46.5852C249.801 46.6944 249.965 46.8582 250.128 47.0221C250.238 47.1859 250.347 47.4044 250.456 47.6228C250.511 47.8413 250.565 48.1143 250.565 48.442C250.565 48.7151 250.565 48.9335 250.511 49.152C250.456 49.3705 250.347 49.5889 250.238 49.7527C250.128 49.9166 250.019 50.0804 249.855 50.1896C249.692 50.2989 249.528 50.4081 249.364 50.4627C249.2 50.5173 248.927 50.5719 248.654 50.6266C248.326 50.6266 247.944 50.6812 247.507 50.6812H246.579V53.4118L244.94 53.4664ZM246.415 47.5136V49.5343H247.234C247.78 49.5343 248.162 49.5343 248.326 49.4251C248.49 49.3705 248.654 49.2612 248.818 49.0974C248.872 48.9882 248.927 48.9335 248.982 48.8243C248.982 48.7151 249.036 48.6059 249.036 48.4966C249.036 48.3874 249.036 48.2782 248.982 48.169C248.927 48.0597 248.927 48.0051 248.818 47.8959C248.763 47.8413 248.709 47.732 248.599 47.6774C248.49 47.6228 248.435 47.5682 248.326 47.5682C248.217 47.5682 248.053 47.5136 247.889 47.5136C247.671 47.5136 247.452 47.5136 247.125 47.5136H246.415ZM253.569 53.4664V50.4627L250.948 46.2575H252.695L254.388 49.0974L256.081 46.2575H257.774L255.098 50.4627V53.4664H253.569ZM261.215 53.4664V46.2575H262.689V53.4664H261.215ZM266.895 53.4664V46.2575H268.315L271.264 51.0635V46.2575H272.629V53.4664H271.155L268.205 48.7697V53.4664H266.895ZM275.797 53.4664V47.459H273.667V46.2575H279.401V47.459H277.271V53.4664H275.797ZM280.002 51.1181L281.422 51.0088C281.476 51.4458 281.64 51.828 281.913 52.0465C282.186 52.2649 282.514 52.3742 282.951 52.3742C283.169 52.3742 283.388 52.3742 283.552 52.3196C283.716 52.2649 283.879 52.2103 283.989 52.1011C284.098 51.9919 284.207 51.8827 284.262 51.7734C284.316 51.6642 284.371 51.555 284.371 51.3911C284.371 51.3365 284.371 51.2273 284.316 51.1727C284.262 51.1181 284.262 51.0635 284.207 50.9542C284.152 50.8996 284.098 50.845 284.043 50.7904C283.989 50.7358 283.879 50.6812 283.825 50.6812C283.77 50.6812 283.606 50.6266 283.388 50.5719C283.169 50.5173 282.896 50.4081 282.514 50.3535C282.186 50.2989 281.913 50.1896 281.695 50.135C281.476 50.0804 281.313 49.9712 281.149 49.862C280.985 49.7527 280.876 49.6435 280.766 49.5343C280.657 49.4251 280.548 49.2612 280.493 49.152C280.384 48.9882 280.33 48.8243 280.275 48.7151C280.22 48.5513 280.22 48.3874 280.22 48.2236C280.22 47.8413 280.33 47.459 280.548 47.1859C280.657 47.0221 280.766 46.9129 280.93 46.749C281.094 46.6398 281.258 46.5306 281.422 46.4759C281.64 46.4213 281.859 46.3667 282.077 46.3121C282.296 46.2575 282.569 46.2575 282.842 46.2575C283.279 46.2575 283.661 46.3121 283.989 46.4213C284.316 46.5306 284.589 46.6398 284.862 46.8582C285.081 47.0221 285.299 47.2951 285.409 47.5682C285.518 47.8413 285.572 48.169 285.627 48.4966L284.152 48.5513C284.098 48.3874 284.043 48.2236 283.989 48.0597C283.934 47.9505 283.825 47.8413 283.716 47.7321C283.606 47.6774 283.497 47.6228 283.333 47.5682C283.169 47.5136 283.006 47.5136 282.787 47.5136C282.569 47.5136 282.405 47.5136 282.241 47.5682C282.077 47.5682 281.968 47.6228 281.859 47.7321C281.75 47.7867 281.695 47.8413 281.64 47.9505C281.586 48.0597 281.586 48.1143 281.586 48.2236C281.586 48.3328 281.586 48.3874 281.64 48.4966C281.695 48.6059 281.75 48.6605 281.859 48.7151C281.968 48.7697 282.132 48.8243 282.35 48.9335C282.569 48.9882 282.842 49.0974 283.224 49.152C283.989 49.3158 284.48 49.5343 284.808 49.6981C284.972 49.8074 285.136 49.9166 285.245 50.0258C285.354 50.135 285.463 50.2989 285.572 50.4627C285.627 50.6266 285.736 50.7904 285.736 50.9542C285.791 51.1181 285.791 51.3365 285.791 51.555C285.791 51.8827 285.736 52.1557 285.627 52.4288C285.518 52.7019 285.354 52.9203 285.081 53.1388C284.862 53.3572 284.535 53.5211 284.152 53.6303C283.77 53.7395 283.333 53.7941 282.842 53.7941C281.149 53.6303 280.166 52.8111 280.002 51.1181ZM287.102 53.4664V46.2575H292.454V47.459H288.522V49.0428H292.181V50.2443H288.522V52.2103H292.563V53.4118H287.102V53.4664Z" fill="#012C63"/>
<path d="M292.999 42.489H69.1943V43.4721H292.999V42.489Z" fill="#012C63"/>
</svg>
