<svg width="1178" height="117" viewBox="0 0 1178 117" fill="none" xmlns="http://www.w3.org/2000/svg">
<path d="M894.9 3.97109C895.8 4.37109 896.4 4.87109 896.9 5.57109C897.4 6.27109 897.6 7.17109 897.6 8.07109C897.6 9.07109 897.4 9.87109 896.9 10.5711C896.4 11.2711 895.8 11.8711 894.9 12.1711C894 12.5711 893 12.7711 891.9 12.7711H889.3V16.3711H886.3V3.37109H892C893 3.37109 894 3.57109 894.9 3.97109ZM893.8 9.7711C894.3 9.3711 894.5 8.77109 894.5 8.07109C894.5 7.37109 894.3 6.77109 893.8 6.37109C893.3 5.97109 892.6 5.7711 891.7 5.7711H889.2V10.3711H891.7C892.6 10.3711 893.3 10.1711 893.8 9.7711Z" fill="#012C63"/>
<path d="M901.4 15.9715C900.6 15.5715 899.9 14.8715 899.4 14.1715C898.9 13.3715 898.7 12.4715 898.7 11.4715C898.7 10.4715 898.9 9.57148 899.4 8.77148C899.9 7.97148 900.5 7.37148 901.4 6.97148C902.2 6.57148 903.2 6.27148 904.3 6.27148C905.4 6.27148 906.3 6.47148 907.1 6.97148C907.9 7.37148 908.6 8.07148 909.1 8.77148C909.6 9.57148 909.8 10.4715 909.8 11.4715C909.8 12.4715 909.6 13.3715 909.1 14.1715C908.6 14.9715 908 15.5715 907.1 15.9715C906.3 16.3715 905.3 16.6715 904.3 16.6715C903.2 16.5715 902.2 16.3715 901.4 15.9715ZM906.1 13.4715C906.6 12.9715 906.8 12.2715 906.8 11.4715C906.8 10.6715 906.6 9.97148 906.1 9.47148C905.6 8.97148 905 8.67149 904.3 8.67149C903.6 8.67149 902.9 8.97148 902.4 9.47148C901.9 9.97148 901.7 10.6715 901.7 11.4715C901.7 12.2715 901.9 12.9715 902.4 13.4715C902.9 13.9715 903.5 14.2715 904.3 14.2715C905.1 14.2715 905.6 13.9715 906.1 13.4715Z" fill="#012C63"/>
<path d="M927.6 6.37109L924 16.4711H921.2L918.9 10.2711L916.6 16.4711H913.8L910.2 6.37109H912.9L915.3 13.1711L917.8 6.37109H920.3L922.7 13.1711L925.1 6.37109H927.6Z" fill="#012C63"/>
<path d="M938.5 12.2714H930.9C931 12.8714 931.4 13.3714 931.9 13.7714C932.4 14.1714 933 14.2714 933.8 14.2714C934.3 14.2714 934.8 14.1714 935.2 14.0714C935.6 13.8714 936 13.6714 936.3 13.3714L937.9 15.0714C937 16.1714 935.6 16.6714 933.7 16.6714C932.6 16.6714 931.6 16.4714 930.7 15.9714C929.8 15.5714 929.2 14.8714 928.7 14.1714C928.2 13.3714 928 12.4714 928 11.4714C928 10.4714 928.2 9.57139 928.7 8.77139C929.2 7.97139 929.8 7.37138 930.6 6.87138C931.4 6.47138 932.3 6.17139 933.3 6.17139C934.3 6.17139 935.2 6.37139 936 6.77139C936.8 7.17139 937.4 7.77138 937.9 8.57138C938.4 9.37138 938.6 10.2714 938.6 11.3714C938.5 11.4714 938.5 11.7714 938.5 12.2714ZM931.6 8.97138C931.2 9.37138 930.9 9.87138 930.8 10.4714H935.8C935.7 9.87138 935.4 9.37138 935 8.97138C934.6 8.57138 934 8.37138 933.4 8.37138C932.6 8.47138 932.1 8.67138 931.6 8.97138Z" fill="#012C63"/>
<path d="M944.699 6.57138C945.299 6.37138 945.999 6.17139 946.699 6.17139V8.87138C946.399 8.87138 946.2 8.87138 946 8.87138C945.2 8.87138 944.5 9.07138 944 9.57138C943.5 10.0714 943.299 10.7714 943.299 11.6714V16.3714H940.399V6.37138H943.199V7.67139C943.599 7.27139 944.099 6.87138 944.699 6.57138Z" fill="#012C63"/>
<path d="M958.1 12.2714H950.5C950.6 12.8714 951 13.3714 951.5 13.7714C952 14.1714 952.6 14.2714 953.4 14.2714C953.9 14.2714 954.4 14.1714 954.8 14.0714C955.2 13.8714 955.6 13.6714 955.9 13.3714L957.5 15.0714C956.6 16.1714 955.2 16.6714 953.3 16.6714C952.2 16.6714 951.2 16.4714 950.3 15.9714C949.4 15.5714 948.8 14.8714 948.3 14.1714C947.8 13.3714 947.6 12.4714 947.6 11.4714C947.6 10.4714 947.8 9.57139 948.3 8.77139C948.8 7.97139 949.4 7.37138 950.2 6.87138C951 6.47138 951.9 6.17139 952.9 6.17139C953.9 6.17139 954.8 6.37139 955.6 6.77139C956.4 7.17139 957 7.77138 957.5 8.57138C958 9.37138 958.2 10.2714 958.2 11.3714C958.2 11.4714 958.2 11.7714 958.1 12.2714ZM951.3 8.97138C950.9 9.37138 950.6 9.87138 950.5 10.4714H955.5C955.4 9.87138 955.1 9.37138 954.7 8.97138C954.3 8.57138 953.7 8.37138 953.1 8.37138C952.3 8.47138 951.8 8.67138 951.3 8.97138Z" fill="#012C63"/>
<path d="M970.399 2.57129V16.4713H967.599V15.2713C966.899 16.1713 965.8 16.5713 964.5 16.5713C963.6 16.5713 962.699 16.3713 961.899 15.9713C961.099 15.5713 960.499 14.9713 960.099 14.1713C959.699 13.3713 959.399 12.4713 959.399 11.4713C959.399 10.4713 959.599 9.57129 960.099 8.77129C960.499 7.97129 961.099 7.37129 961.899 6.97129C962.699 6.57129 963.5 6.37129 964.5 6.37129C965.8 6.37129 966.8 6.77129 967.5 7.57129V2.6713H970.399V2.57129ZM966.799 13.4713C967.299 12.9713 967.5 12.2713 967.5 11.4713C967.5 10.6713 967.299 9.97129 966.799 9.47129C966.299 8.97129 965.7 8.6713 965 8.6713C964.3 8.6713 963.599 8.97129 963.099 9.47129C962.599 9.97129 962.399 10.6713 962.399 11.4713C962.399 12.2713 962.599 12.9713 963.099 13.4713C963.599 13.9713 964.2 14.2713 965 14.2713C965.7 14.1713 966.299 13.9713 966.799 13.4713Z" fill="#012C63"/>
<path d="M986.9 6.87129C987.7 7.27129 988.3 7.87129 988.7 8.6713C989.1 9.4713 989.4 10.3713 989.4 11.3713C989.4 12.3713 989.2 13.2713 988.7 14.0713C988.3 14.8713 987.7 15.4713 986.9 15.8713C986.1 16.2713 985.3 16.4713 984.3 16.4713C982.9 16.4713 981.9 16.0713 981.1 15.1713V16.3713H978.3V2.57129H981.2V7.47129C981.9 6.67129 982.9 6.27129 984.2 6.27129C985.3 6.27129 986.1 6.47129 986.9 6.87129ZM985.7 13.4713C986.2 12.9713 986.4 12.2713 986.4 11.4713C986.4 10.6713 986.2 9.97129 985.7 9.47129C985.2 8.97129 984.6 8.6713 983.9 8.6713C983.2 8.6713 982.5 8.97129 982.1 9.47129C981.6 9.97129 981.4 10.6713 981.4 11.4713C981.4 12.2713 981.6 12.9713 982.1 13.4713C982.6 13.9713 983.2 14.2713 983.9 14.2713C984.6 14.1713 985.2 13.9713 985.7 13.4713Z" fill="#012C63"/>
<path d="M1001 6.37109L996.5 17.0711C996 18.2711 995.499 19.0711 994.799 19.4711C994.099 19.9711 993.299 20.1711 992.299 20.1711C991.799 20.1711 991.299 20.0711 990.699 19.9711C990.199 19.7711 989.799 19.5711 989.399 19.2711L990.5 17.1711C990.7 17.3711 990.999 17.5711 991.299 17.6711C991.599 17.7711 991.899 17.8711 992.199 17.8711C992.599 17.8711 992.899 17.7711 993.199 17.5711C993.399 17.3711 993.699 17.0711 993.899 16.5711V16.4711L989.5 6.37109H992.5L995.299 13.1711L998.099 6.37109H1001Z" fill="#012C63"/>
<path d="M881.2 11.9714H822.6C822.5 11.9714 822.5 11.8714 822.5 11.8714V10.7714C822.5 10.6714 822.6 10.6714 822.6 10.6714H881.2C881.3 10.6714 881.3 10.7714 881.3 10.7714L881.2 11.9714Z" fill="#F97B26"/>
<path d="M1063.9 11.9714H1005.3C1005.2 11.9714 1005.2 11.8714 1005.2 11.8714V10.7714C1005.2 10.6714 1005.3 10.6714 1005.3 10.6714H1063.9C1064 10.6714 1064 10.7714 1064 10.7714L1063.9 11.9714C1063.9 11.9714 1064 11.8714 1063.9 11.9714Z" fill="#F97B26"/>
<path d="M624 77.4711C634.659 77.4711 643.3 68.8302 643.3 58.1711C643.3 47.512 634.659 38.8711 624 38.8711C613.341 38.8711 604.7 47.512 604.7 58.1711C604.7 68.8302 613.341 77.4711 624 77.4711Z" fill="#012C63"/>
<path d="M624.101 116.271C620.501 116.271 617 115.971 613.4 115.271C598.1 112.471 584.901 103.871 576.101 91.0713C567.301 78.2713 564 62.8713 566.9 47.5713C569.7 32.2713 578.301 19.0713 591.101 10.2713C603.901 1.47132 619.301 -1.82869 634.601 0.971313C666.101 6.77131 687.001 37.1713 681.101 68.6713C678.301 83.9713 669.701 97.1713 656.9 105.971C647.1 112.771 635.801 116.271 624.101 116.271ZM623.9 19.5713C616.2 19.5713 608.601 21.8713 602.101 26.3713C593.601 32.1713 587.9 40.9713 586 51.0713C584.1 61.1713 586.301 71.4713 592.101 79.9713C597.901 88.4713 606.7 94.1713 616.8 96.0713C626.9 97.9713 637.201 95.7713 645.601 89.9713C654.101 84.1713 659.8 75.3713 661.7 65.2713C665.6 44.3713 651.7 24.2713 630.8 20.3713C628.7 19.7713 626.3 19.5713 623.9 19.5713Z" fill="#012C63"/>
<path d="M624.636 57.8899L623.105 58.6299L631.724 76.4558L633.255 75.7158L624.636 57.8899Z" fill="white"/>
<path d="M638.301 96.6715C634.801 100.971 631.401 105.171 627.901 109.571C626.301 92.5715 623.101 58.5715 623.101 58.5715C623.101 58.5715 630.801 74.4715 633.101 79.0715C633.401 79.7715 633.501 80.1715 633.001 80.8715C631.601 82.5715 631.701 84.8715 633.001 86.4715C634.301 88.0715 636.701 88.5715 638.501 87.5715C640.401 86.5715 641.301 84.4715 640.701 82.2715C640.201 80.3715 638.201 78.9715 636.101 79.1715C635.301 79.2715 634.901 78.9715 634.601 78.2715C631.501 71.8715 624.701 57.7715 624.701 57.7715C624.701 57.7715 649.101 81.4715 661.301 93.3715C655.601 93.4715 650.301 93.4715 644.801 93.5715C645.601 95.2715 646.301 96.6715 647.001 98.1715C648.601 101.471 650.201 104.771 651.901 108.071C652.201 108.771 652.201 108.971 651.401 109.371C649.801 110.171 648.301 110.871 646.701 111.571C646.001 111.871 645.701 111.771 645.301 111.071C643.201 106.671 638.501 97.1715 638.301 96.6715Z" fill="#F97B26"/>
<path d="M768.801 44.8712C771.401 47.5712 772.801 51.5712 772.801 56.9712V77.6712H760.101V59.0712C760.101 56.5712 759.601 54.6712 758.701 53.4712C757.701 52.2712 756.401 51.6712 754.701 51.6712C752.801 51.6712 751.301 52.3712 750.101 53.6712C748.901 54.9712 748.401 57.0712 748.401 59.7712V77.6712H735.701V59.0712C735.701 54.1712 733.901 51.6712 730.201 51.6712C728.201 51.6712 726.701 52.3712 725.501 53.6712C724.301 54.9712 723.801 57.0712 723.801 59.7712V77.6712H711.101V41.5712H723.201V45.3712C724.501 43.8712 726.101 42.7712 728.001 42.0712C729.801 41.3712 731.901 40.9712 734.001 40.9712C736.501 40.9712 738.801 41.4712 740.801 42.3712C742.801 43.2712 744.401 44.7712 745.701 46.6712C747.101 44.8712 748.901 43.4712 751.101 42.4712C753.301 41.4712 755.701 40.9712 758.201 40.9712C762.601 40.8712 766.101 42.1712 768.801 44.8712Z" fill="#F97B26"/>
<path d="M818.1 41.4712L802.5 79.0712C800.7 83.4712 798.5 86.6712 795.8 88.4712C793.2 90.2712 790 91.1712 786.2 91.1712C784.3 91.1712 782.4 90.8712 780.4 90.2712C778.5 89.6712 776.9 88.8712 775.7 87.8712L780.1 78.9712C780.8 79.6712 781.7 80.1712 782.7 80.5712C783.7 80.9712 784.7 81.1712 785.7 81.1712C786.9 81.1712 787.9 80.9712 788.7 80.4712C789.5 79.9712 790.1 79.1712 790.7 78.1712L775.2 41.5712H788.2L797.1 63.6712L806 41.5712H818.1V41.4712Z" fill="#F97B26"/>
<path d="M829.7 75.7715C826.5 74.1715 824.1 71.9715 822.3 69.0715C820.5 66.2715 819.7 62.9715 819.7 59.3715C819.7 55.7715 820.6 52.5715 822.3 49.7715C824.1 46.9715 826.5 44.7715 829.7 43.1715C832.9 41.5715 836.4 40.7715 840.4 40.7715C844.5 40.7715 848 41.6715 851 43.3715C854 45.1715 856.1 47.5715 857.3 50.6715L847.5 55.6715C845.9 52.4715 843.5 50.7715 840.3 50.7715C838 50.7715 836.2 51.5715 834.7 53.0715C833.2 54.5715 832.5 56.6715 832.5 59.3715C832.5 62.0715 833.2 64.1715 834.7 65.7715C836.2 67.2715 838.1 68.0715 840.3 68.0715C843.5 68.0715 845.9 66.4715 847.5 63.1715L857.3 68.1715C856.1 71.2715 853.9 73.6715 851 75.4715C848 77.2715 844.5 78.0715 840.4 78.0715C836.5 78.1715 832.9 77.3715 829.7 75.7715Z" fill="#012C63"/>
<path d="M862 28.0713H874.7V77.4713H862V28.0713Z" fill="#012C63"/>
<path d="M912 44.9711C915.2 47.6711 916.7 51.8711 916.7 57.5711V77.6711H904.9V72.9711C903.1 76.4711 899.5 78.2711 894.2 78.2711C891.4 78.2711 889 77.7711 886.9 76.7711C884.9 75.7711 883.3 74.4711 882.3 72.7711C881.3 71.0711 880.7 69.1711 880.7 67.0711C880.7 63.6711 882 60.9711 884.6 59.0711C887.2 57.1711 891.3 56.2711 896.7 56.2711H903.9C903.7 52.4711 901.1 50.5711 896.2 50.5711C894.5 50.5711 892.7 50.8711 890.9 51.3711C889.1 51.9711 887.6 52.6711 886.4 53.6711L882.1 45.0711C884.1 43.7711 886.5 42.6711 889.4 41.9711C892.3 41.2711 895.1 40.8711 898 40.8711C904.3 40.8711 908.9 42.1711 912 44.9711ZM901.7 69.0711C902.8 68.3711 903.6 67.2711 904.1 65.9711V62.8711H898.6C894.9 62.8711 893.1 64.0711 893.1 66.5711C893.1 67.6711 893.5 68.5711 894.4 69.2711C895.2 69.9711 896.4 70.2711 897.9 70.2711C899.4 70.2711 900.6 69.7711 901.7 69.0711Z" fill="#012C63"/>
<path d="M928.9 77.0714C926 76.3714 923.6 75.4714 921.8 74.3714L925.6 65.6714C927.2 66.6714 929.2 67.4714 931.5 68.0714C933.8 68.6714 936 68.9714 938.2 68.9714C940.2 68.9714 941.7 68.7714 942.6 68.3714C943.5 67.9714 943.9 67.3714 943.9 66.5714C943.9 65.7714 943.4 65.1714 942.3 64.8714C941.3 64.5714 939.6 64.1714 937.3 63.8714C934.4 63.4714 932 63.0714 929.9 62.4714C927.9 61.8714 926.1 60.8714 924.7 59.2714C923.2 57.6714 922.5 55.5714 922.5 52.7714C922.5 50.4714 923.2 48.3714 924.6 46.5714C926 44.7714 928 43.3714 930.6 42.2714C933.2 41.2714 936.4 40.6714 940.1 40.6714C942.7 40.6714 945.3 40.9714 947.9 41.4714C950.5 41.9714 952.6 42.7714 954.4 43.7714L950.6 52.3714C947.4 50.5714 943.9 49.6714 940.2 49.6714C938.2 49.6714 936.7 49.8714 935.8 50.3714C934.9 50.8714 934.4 51.4714 934.4 52.1714C934.4 52.9714 934.9 53.5714 935.9 53.9714C936.9 54.2714 938.6 54.6714 941 54.9714C944 55.3714 946.4 55.9714 948.4 56.4714C950.4 57.0714 952.1 58.0714 953.5 59.6714C954.9 61.1714 955.7 63.3714 955.7 66.0714C955.7 68.3714 955 70.3714 953.6 72.1714C952.2 73.9714 950.2 75.3714 947.5 76.3714C944.8 77.3714 941.6 77.8714 937.8 77.8714C934.8 78.1714 931.9 77.7714 928.9 77.0714Z" fill="#012C63"/>
<path d="M965.4 77.0714C962.5 76.3714 960.1 75.4714 958.3 74.3714L962.1 65.6714C963.7 66.6714 965.7 67.4714 968 68.0714C970.3 68.6714 972.5 68.9714 974.7 68.9714C976.7 68.9714 978.2 68.7714 979.1 68.3714C980 67.9714 980.4 67.3714 980.4 66.5714C980.4 65.7714 979.9 65.1714 978.8 64.8714C977.8 64.5714 976.1 64.1714 973.8 63.8714C970.9 63.4714 968.5 63.0714 966.4 62.4714C964.4 61.8714 962.6 60.8714 961.2 59.2714C959.7 57.6714 959 55.5714 959 52.7714C959 50.4714 959.7 48.3714 961.1 46.5714C962.5 44.7714 964.5 43.3714 967.1 42.2714C969.7 41.2714 972.9 40.6714 976.6 40.6714C979.2 40.6714 981.8 40.9714 984.4 41.4714C987 41.9714 989.1 42.7714 990.9 43.7714L987.1 52.3714C983.9 50.5714 980.4 49.6714 976.7 49.6714C974.7 49.6714 973.2 49.8714 972.3 50.3714C971.4 50.8714 970.9 51.4714 970.9 52.1714C970.9 52.9714 971.4 53.5714 972.4 53.9714C973.4 54.3714 975.1 54.6714 977.5 54.9714C980.5 55.3714 982.9 55.9714 984.9 56.4714C986.9 57.0714 988.6 58.0714 990 59.6714C991.4 61.1714 992.2 63.3714 992.2 66.0714C992.2 68.3714 991.5 70.3714 990.1 72.1714C988.7 73.9714 986.7 75.3714 984 76.3714C981.3 77.3714 978.1 77.8714 974.3 77.8714C971.3 78.1714 968.3 77.7714 965.4 77.0714Z" fill="#012C63"/>
<path d="M1014.7 42.0711C1016.8 41.2711 1019.1 40.8711 1021.8 40.8711V52.2711C1020.6 52.1711 1019.7 52.0711 1018.9 52.0711C1016.2 52.0711 1014.1 52.7711 1012.5 54.2711C1010.9 55.7711 1010.2 57.9711 1010.2 60.9711V77.5711H997.5V41.4711H1009.6V45.7711C1011 44.0711 1012.7 42.8711 1014.7 42.0711Z" fill="#012C63"/>
<path d="M1034.3 75.7715C1031.2 74.1715 1028.8 71.9715 1027 69.0715C1025.2 66.2715 1024.4 62.9715 1024.4 59.3715C1024.4 55.7715 1025.3 52.5715 1027 49.7715C1028.8 46.9715 1031.2 44.6715 1034.3 43.1715C1037.4 41.5715 1040.9 40.7715 1044.8 40.7715C1048.7 40.7715 1052.2 41.5715 1055.3 43.1715C1058.4 44.7715 1060.8 46.9715 1062.6 49.7715C1064.3 52.5715 1065.2 55.7715 1065.2 59.3715C1065.2 62.9715 1064.3 66.1715 1062.6 69.0715C1060.9 71.8715 1058.4 74.1715 1055.3 75.7715C1052.2 77.3715 1048.7 78.1715 1044.8 78.1715C1040.9 78.1715 1037.4 77.3715 1034.3 75.7715ZM1050.3 65.7715C1051.7 64.2715 1052.4 62.0715 1052.4 59.3715C1052.4 56.6715 1051.7 54.5715 1050.3 53.0715C1048.9 51.5715 1047.1 50.7715 1044.8 50.7715C1042.6 50.7715 1040.8 51.5715 1039.3 53.0715C1037.9 54.5715 1037.2 56.6715 1037.2 59.3715C1037.2 62.0715 1037.9 64.1715 1039.3 65.7715C1040.7 67.2715 1042.5 68.0715 1044.8 68.0715C1047 68.0715 1048.8 67.2715 1050.3 65.7715Z" fill="#012C63"/>
<path d="M1078.7 75.7715C1075.6 74.1715 1073.2 71.9715 1071.4 69.0715C1069.6 66.2715 1068.8 62.9715 1068.8 59.3715C1068.8 55.7715 1069.7 52.5715 1071.4 49.7715C1073.2 46.9715 1075.6 44.6715 1078.7 43.1715C1081.8 41.5715 1085.3 40.7715 1089.2 40.7715C1093.1 40.7715 1096.6 41.5715 1099.7 43.1715C1102.8 44.7715 1105.2 46.9715 1107 49.7715C1108.7 52.5715 1109.6 55.7715 1109.6 59.3715C1109.6 62.9715 1108.7 66.1715 1107 69.0715C1105.3 71.8715 1102.8 74.1715 1099.7 75.7715C1096.6 77.3715 1093.1 78.1715 1089.2 78.1715C1085.3 78.1715 1081.8 77.3715 1078.7 75.7715ZM1094.6 65.7715C1096 64.2715 1096.7 62.0715 1096.7 59.3715C1096.7 56.6715 1096 54.5715 1094.6 53.0715C1093.2 51.5715 1091.4 50.7715 1089.1 50.7715C1086.9 50.7715 1085.1 51.5715 1083.6 53.0715C1082.2 54.5715 1081.5 56.6715 1081.5 59.3715C1081.5 62.0715 1082.2 64.1715 1083.6 65.7715C1085 67.2715 1086.8 68.0715 1089.1 68.0715C1091.4 68.0715 1093.2 67.2715 1094.6 65.7715Z" fill="#012C63"/>
<path d="M1173.1 44.8712C1175.7 47.5712 1177.1 51.5712 1177.1 56.9712V77.6712H1164.4V59.0712C1164.4 56.5712 1163.9 54.6712 1163 53.4712C1162 52.2712 1160.7 51.6712 1159 51.6712C1157.1 51.6712 1155.6 52.3712 1154.4 53.6712C1153.2 54.9712 1152.7 57.0712 1152.7 59.7712V77.6712H1140V59.0712C1140 54.1712 1138.2 51.6712 1134.5 51.6712C1132.5 51.6712 1131 52.3712 1129.8 53.6712C1128.6 54.9712 1128.1 57.0712 1128.1 59.7712V77.6712H1115.4V41.5712H1127.5V45.3712C1128.8 43.8712 1130.4 42.7712 1132.3 42.0712C1134.1 41.3712 1136.2 40.9712 1138.3 40.9712C1140.8 40.9712 1143.1 41.4712 1145.1 42.3712C1147.1 43.2712 1148.7 44.7712 1150 46.6712C1151.4 44.8712 1153.2 43.4712 1155.4 42.4712C1157.6 41.4712 1160 40.9712 1162.5 40.9712C1166.9 40.8712 1170.4 42.1712 1173.1 44.8712Z" fill="#012C63"/>
<path d="M64.4004 11.9712L68.7004 12.9712L70.3004 17.6712L73.8004 14.0712L78.1004 15.0712L71.5004 21.0712L70.3004 26.1712L66.4004 25.2712L67.6004 20.1712L64.4004 11.9712Z" fill="#012C63"/>
<path d="M52.4004 20.571L51.9004 17.971L58.0004 16.871L59.0004 22.171C58.5004 22.671 58.0004 23.071 57.5004 23.371C57.1004 23.771 56.6004 23.971 56.2004 24.271C55.8004 24.471 55.3004 24.671 54.8004 24.771C54.3004 24.971 53.7004 25.071 53.1004 25.171C52.4004 25.271 51.7004 25.371 51.0004 25.371C50.4004 25.371 49.8004 25.271 49.3004 25.071C48.8004 24.871 48.3004 24.671 47.9004 24.371C47.5004 24.071 47.1004 23.671 46.7004 23.171C46.4004 22.771 46.1004 22.271 45.8004 21.671C45.6004 21.171 45.4004 20.471 45.3004 19.871C45.0004 18.571 45.1004 17.271 45.5004 16.171C45.7004 15.671 45.9004 15.071 46.3004 14.671C46.7004 14.271 47.1004 13.871 47.6004 13.471C48.0004 13.171 48.5004 12.971 49.0004 12.771C49.5004 12.571 50.2004 12.371 50.9004 12.271C52.3004 11.971 53.4004 11.971 54.1004 12.071C54.5004 12.171 54.8004 12.271 55.2004 12.371C55.5004 12.471 55.8004 12.671 56.1004 12.871C56.4004 13.071 56.6004 13.371 56.9004 13.671C57.1004 13.971 57.3004 14.271 57.5004 14.671L53.8004 15.971C53.7004 15.771 53.5004 15.571 53.4004 15.371C53.2004 15.171 53.0004 15.071 52.9004 14.971C52.7004 14.871 52.5004 14.771 52.2004 14.771C51.9004 14.771 51.7004 14.771 51.4004 14.871C51.0004 14.971 50.6004 15.071 50.3004 15.271C50.0004 15.471 49.8004 15.671 49.5004 16.071C49.3004 16.371 49.2004 16.771 49.1004 17.271C49.0004 17.771 49.1004 18.271 49.2004 18.971C49.3004 19.671 49.5004 20.171 49.7004 20.671C49.9004 21.171 50.1004 21.471 50.5004 21.771C50.8004 22.071 51.1004 22.171 51.5004 22.271C51.9004 22.371 52.3004 22.371 52.8004 22.271C53.0004 22.271 53.2004 22.171 53.4004 22.071C53.6004 21.971 53.8004 21.971 54.0004 21.871C54.2004 21.771 54.4004 21.671 54.6004 21.471C54.8004 21.371 55.0004 21.171 55.3004 20.971L55.1004 19.771L52.4004 20.571Z" fill="#012C63"/>
<path d="M83.6004 30.9711L79.9004 28.4711L78.2004 29.7711L74.9004 27.4711L86.2004 19.8711L89.7004 22.3711L86.3004 35.3711L82.9004 33.0711L83.6004 30.9711ZM84.5004 28.3711L86.0004 23.8711L82.2004 26.7711L84.5004 28.3711Z" fill="#012C63"/>
<path d="M98.6996 31.3711L100.6 34.4711L96.7996 41.9711L103 38.5711L104.9 41.7711L93.6996 47.9711L91.8996 44.8711L95.5996 37.3711L89.4996 40.7711L87.5996 37.6711L98.6996 31.3711Z" fill="#012C63"/>
<path d="M21.2002 28.8712L24.1002 26.2712L27.4002 29.6712L27.1002 23.4712L31.0002 19.9712L30.9002 26.4712L39.9002 28.9712L36.3002 32.2712L30.7002 30.2712V33.1712L32.8002 35.3712L29.9002 38.0712L21.2002 28.8712Z" fill="#012C63"/>
<path d="M11.7998 45.2711L16.2998 35.8711L18.7998 36.9711L15.9998 42.8711L17.7998 43.6711L20.3998 38.2711L22.7998 39.3711L20.1998 44.7711L22.4998 45.8711L25.3998 39.7711L27.9998 40.9711L23.3998 50.5711L11.7998 45.2711Z" fill="#012C63"/>
<path d="M26.1996 74.0713L29.1996 78.3713L23.7996 84.2713L31.3996 81.5713L34.2996 85.7713L23.5996 92.7713L21.7996 90.1713L29.9996 84.8713L20.3996 88.1713L18.7996 85.7713L25.4996 78.3713L17.3996 83.7713L15.5996 81.0713L26.1996 74.0713Z" fill="#012C63"/>
<path d="M97.5 90.4713L86.5 83.9713L89.9 78.4713C90.2 77.9713 90.5 77.4713 90.8 77.1713C91.1 76.7713 91.3 76.5713 91.6 76.2713C91.9 75.9713 92.1 75.8713 92.4 75.7713C92.7 75.6713 93 75.5713 93.4 75.5713C93.7 75.5713 94.1 75.5713 94.4 75.6713C94.8 75.7713 95.1 75.8713 95.5 76.0713C95.8 76.2713 96.1 76.4713 96.3 76.6713C96.5 76.8713 96.7 77.0713 96.8 77.3713C96.9 77.6713 97.1 77.8713 97.1 78.1713C97.2 78.4713 97.2 78.7713 97.2 79.0713C97.2 79.2713 97.2 79.4713 97.1 79.6713C97.1 79.9713 97 80.1713 96.9 80.4713C97.1 80.2713 97.3 80.1713 97.4 80.0713C97.6 79.9713 97.7 79.8713 97.8 79.8713C97.9 79.7713 98 79.7713 98.2 79.7713C98.3 79.7713 98.5 79.6713 98.7 79.6713C98.9 79.6713 99.1 79.5713 99.3 79.5713C99.5 79.5713 99.6 79.5713 99.7 79.5713L103.9 79.8713L101.6 83.5713L97.1 83.3713C96.8 83.3713 96.6 83.3713 96.4 83.3713C96.2 83.3713 96 83.3713 95.9 83.4713C95.7 83.5713 95.6 83.6713 95.5 83.7713C95.4 83.8713 95.3 84.0713 95.2 84.1713L95 84.4713L99.5 87.0713L97.5 90.4713ZM93 83.3713L93.9 81.9713C94 81.8713 94 81.7713 94.1 81.5713C94.2 81.3713 94.3 81.1713 94.3 80.9713C94.4 80.8713 94.4 80.6713 94.4 80.5713C94.4 80.4713 94.4 80.3713 94.3 80.1713C94.2 80.0713 94.2 79.9713 94.1 79.8713C94 79.7713 93.9 79.6713 93.8 79.5713C93.6 79.4713 93.4 79.3713 93.3 79.3713C93.1 79.3713 92.9 79.3713 92.8 79.3713C92.6 79.4713 92.5 79.5713 92.3 79.7713C92.1 79.9713 91.9 80.1713 91.8 80.4713L90.9 81.9713L93 83.3713Z" fill="#012C63"/>
<path d="M38.3004 100.271L34.5004 97.9714L32.9004 99.3714L29.4004 97.2714L40.3004 89.1714L44.0004 91.3714L41.3004 104.471L37.7004 102.371L38.3004 100.271ZM39.1004 97.5714L40.3004 92.9714L36.7004 96.0714L39.1004 97.5714Z" fill="#012C63"/>
<path d="M79.4004 88.9712L82.5004 86.4712L90.8004 96.0712L87.7004 98.5712L79.4004 88.9712Z" fill="#012C63"/>
<path d="M50 93.6714L53.7 94.1714L57.6 101.671L58.5 94.7714L62.2 95.1714L60.7 107.571L56.9 107.171L53 99.7714L52.2 106.571L48.5 106.171L50 93.6714Z" fill="#012C63"/>
<path d="M65.0996 94.771L70.5996 92.771C71.1996 92.571 71.6996 92.371 72.0996 92.371C72.4996 92.271 72.9996 92.271 73.3996 92.271C73.7996 92.271 74.1996 92.371 74.4996 92.471C74.8996 92.571 75.1996 92.771 75.4996 92.871C75.7996 93.071 76.0996 93.271 76.3996 93.571C76.6996 93.871 76.8996 94.071 77.0996 94.471C77.2996 94.771 77.4996 95.171 77.6996 95.471C77.8996 95.871 78.0996 96.171 78.1996 96.671C78.3996 97.271 78.5996 97.871 78.6996 98.371C78.7996 98.871 78.8996 99.371 78.8996 99.771C78.8996 100.171 78.7996 100.571 78.6996 100.971C78.5996 101.371 78.4996 101.671 78.2996 101.971C77.9996 102.571 77.4996 103.171 76.9996 103.471C76.5996 103.771 76.2996 103.871 75.8996 104.071C75.4996 104.271 75.1996 104.471 74.8996 104.571L69.3996 106.571L65.0996 94.771ZM69.8996 96.171L72.2996 102.571L73.1996 102.271C73.5996 102.071 73.8996 101.971 74.1996 101.871C74.4996 101.671 74.5996 101.571 74.7996 101.471C74.8996 101.271 75.0996 101.171 75.0996 100.971C75.1996 100.771 75.1996 100.571 75.1996 100.271C75.1996 100.071 75.1996 99.771 75.0996 99.371C74.9996 98.971 74.8996 98.571 74.6996 98.171C74.4996 97.571 74.1996 96.971 73.9996 96.671C73.6996 96.271 73.4996 95.971 73.1996 95.871C72.5996 95.571 71.7996 95.571 70.8996 95.971L69.8996 96.171Z" fill="#012C63"/>
<path d="M38.8 67.2714V61.4714C38.8 60.5714 38.7 59.8714 38.5 59.5714C38.4 59.3714 38.2 59.2714 38 59.1714C37.7 59.0714 37.5 58.8714 37.1 58.7714C37 58.7714 36.9 58.7714 36.9 58.6714C36.8 58.6714 36.8 58.5714 36.8 58.5714L36.7 58.4714V58.3714V58.1714C36.7 58.0714 36.7 58.0714 36.7 58.0714L36.8 57.9714L36.9 57.8714C37 57.8714 37 57.7714 37.1 57.7714C37.6 57.5714 38.1 57.4714 38.5 57.3714C38.9 57.1714 39.3 57.0714 39.7 56.9714C40.5 56.5714 41.3 56.1714 42.2 55.6714C42.3 55.6714 42.4 55.6714 42.4 55.6714C42.5 55.6714 42.5 55.6714 42.5 55.7714C42.5 55.7714 42.6 55.7714 42.6 55.8714C42.6 55.9714 42.6 55.9714 42.6 56.0714V58.7714C42.9 58.4714 43.2 58.1714 43.5 57.9714C43.8 57.6714 44.1 57.4714 44.4 57.2714C45.1 56.8714 45.7 56.4714 46.3 56.2714C46.9 56.0714 47.5 55.9714 48.1 55.9714C48.8 55.9714 49.4 56.0714 49.9 56.2714C50.4 56.4714 50.9 56.7714 51.3 57.1714C51.6 57.3714 51.8 57.6714 51.9 57.9714C52.1 58.2714 52.2 58.5714 52.3 58.9714C52.6 58.6714 52.9 58.3714 53.3 58.0714C53.6 57.7714 53.9 57.5714 54.3 57.3714C55 56.9714 55.6 56.5714 56.3 56.3714C56.9 56.1714 57.5 56.0714 58.1 56.0714C58.8 56.0714 59.4 56.1714 59.9 56.3714C60.4 56.5714 60.9 56.8714 61.3 57.2714C61.7 57.6714 62 58.0714 62.2 58.5714C62.4 59.0714 62.5 59.6714 62.5 60.2714V67.6714C62.5 68.1714 62.5 68.5714 62.5 68.9714C62.5 69.2714 62.6 69.5714 62.7 69.6714C62.8 69.8714 62.9 69.9714 63.1 70.0714C63.3 70.1714 63.5 70.2714 63.7 70.2714L64.4 70.3714C64.5 70.3714 64.5 70.3714 64.6 70.4714C64.6 70.4714 64.7 70.5714 64.7 70.6714V71.3714C64.7 71.4714 64.7 71.4714 64.7 71.5714C64.7 71.5714 64.7 71.6714 64.6 71.6714C64.6 71.6714 64.5 71.6714 64.4 71.6714C64.3 71.6714 64.2 71.6714 64.1 71.6714C63.4 71.5714 62.8 71.5714 62.2 71.5714C61.6 71.5714 61.1 71.5714 60.6 71.5714C60.1 71.5714 59.6 71.5714 59 71.5714C58.4 71.5714 57.8 71.6714 57.1 71.6714C57 71.6714 56.9 71.6714 56.8 71.6714C56.7 71.6714 56.7 71.6714 56.7 71.6714C56.6 71.6714 56.6 71.6714 56.6 71.5714C56.6 71.5714 56.6 71.4714 56.6 71.3714V70.6714C56.6 70.5714 56.6 70.5714 56.7 70.4714C56.7 70.3714 56.8 70.3714 56.9 70.3714L57.5 70.2714C57.8 70.1714 57.9 70.1714 58.1 70.0714C58.3 69.9714 58.4 69.8714 58.4 69.6714C58.5 69.4714 58.5 69.2714 58.6 68.9714C58.6 68.5714 58.7 68.1714 58.7 67.6714V61.1714C58.7 60.7714 58.6 60.3714 58.5 60.0714C58.4 59.7714 58.2 59.4714 57.9 59.2714C57.7 59.0714 57.4 58.8714 57.1 58.7714C56.8 58.6714 56.4 58.5714 56 58.5714C55.6 58.5714 55.1 58.6714 54.8 58.7714C54.4 58.8714 54 59.0714 53.6 59.2714C53.4 59.4714 53.2 59.5714 53.1 59.6714C52.9 59.8714 52.8 59.9714 52.6 60.1714V67.6714C52.6 68.1714 52.6 68.5714 52.7 68.9714C52.7 69.2714 52.8 69.5714 52.8 69.6714C52.9 69.9714 53.2 70.1714 53.7 70.2714L54.3 70.3714C54.4 70.3714 54.5 70.3714 54.5 70.4714C54.6 70.4714 54.6 70.5714 54.6 70.6714V71.3714C54.6 71.4714 54.6 71.4714 54.6 71.5714C54.6 71.6714 54.6 71.6714 54.5 71.6714C54.5 71.6714 54.4 71.6714 54.3 71.6714C54.2 71.6714 54.1 71.6714 54 71.6714C53.4 71.5714 52.8 71.5714 52.2 71.5714C51.6 71.5714 51.1 71.5714 50.6 71.5714C50.1 71.5714 49.6 71.5714 49 71.5714C48.4 71.5714 47.8 71.6714 47.1 71.6714C47 71.6714 46.9 71.6714 46.8 71.6714C46.7 71.6714 46.7 71.6714 46.6 71.6714C46.5 71.6714 46.5 71.6714 46.5 71.5714C46.5 71.5714 46.5 71.4714 46.5 71.3714V70.6714C46.5 70.5714 46.5 70.5714 46.6 70.4714C46.6 70.3714 46.7 70.3714 46.8 70.3714L47.4 70.2714C47.7 70.1714 47.8 70.1714 48 70.0714C48.2 69.9714 48.3 69.8714 48.3 69.6714C48.4 69.5714 48.4 69.2714 48.5 68.9714C48.5 68.5714 48.6 68.1714 48.6 67.6714V61.9714C48.6 61.4714 48.5 60.9714 48.4 60.5714C48.3 60.1714 48.1 59.7714 47.9 59.4714C47.6 59.1714 47.4 58.9714 47.1 58.7714C46.7 58.5714 46.4 58.5714 46 58.5714C45.6 58.5714 45.1 58.6714 44.7 58.7714C44.3 58.8714 43.9 59.0714 43.5 59.2714C43.3 59.4714 43.1 59.5714 43 59.6714C42.8 59.8714 42.7 59.9714 42.5 60.1714V67.6714C42.5 68.1714 42.5 68.5714 42.6 68.9714C42.6 69.2714 42.7 69.5714 42.7 69.6714C42.8 69.8714 42.9 69.9714 43.1 70.0714C43.3 70.1714 43.5 70.2714 43.7 70.2714L44.3 70.3714C44.4 70.3714 44.5 70.3714 44.5 70.4714C44.5 70.4714 44.5 70.5714 44.5 70.6714V71.3714C44.5 71.4714 44.5 71.4714 44.5 71.5714C44.5 71.6714 44.4 71.6714 44.4 71.6714C44.4 71.6714 44.3 71.6714 44.2 71.6714C44.1 71.6714 44 71.6714 43.9 71.6714C43.3 71.5714 42.7 71.5714 42.1 71.5714C41.5 71.5714 41 71.5714 40.5 71.5714C40 71.5714 39.5 71.5714 38.9 71.5714C38.3 71.5714 37.7 71.6714 37.1 71.6714C37 71.6714 36.9 71.6714 36.8 71.6714C36.7 71.6714 36.7 71.6714 36.6 71.6714C36.5 71.6714 36.5 71.6714 36.5 71.5714C36.5 71.5714 36.5 71.4714 36.5 71.3714V70.6714C36.5 70.5714 36.5 70.5714 36.6 70.4714C36.6 70.3714 36.7 70.3714 36.8 70.3714L37.4 70.2714C37.7 70.1714 37.8 70.1714 38 70.0714C38.2 69.9714 38.3 69.8714 38.4 69.6714C38.5 69.5714 38.5 69.2714 38.5 68.9714C38.7 68.1714 38.8 67.7714 38.8 67.2714ZM68.3 59.8714C68.1 59.4714 67.9 59.0714 67.8 58.7714C67.6 58.4714 67.4 58.1714 67.3 57.9714C67.1 57.7714 67 57.5714 66.8 57.5714C66.6 57.4714 66.5 57.3714 66.3 57.2714L65.8 57.1714C65.7 57.1714 65.6 57.0714 65.6 57.0714C65.5 56.9714 65.5 56.9714 65.5 56.8714V56.1714C65.5 56.0714 65.5 56.0714 65.6 55.9714C65.6 55.9714 65.6 55.8714 65.7 55.8714C65.7 55.8714 65.8 55.7714 65.9 55.7714C66 55.7714 66.1 55.7714 66.2 55.7714C66.9 55.8714 67.5 55.8714 68.1 55.8714C68.7 55.8714 69.3 55.8714 69.8 55.8714C70.3 55.8714 70.8 55.8714 71.4 55.8714C72 55.8714 72.6 55.7714 73.3 55.7714C73.4 55.7714 73.5 55.7714 73.6 55.7714C73.7 55.7714 73.7 55.7714 73.8 55.7714C73.9 55.7714 73.9 55.7714 73.9 55.8714C73.9 55.8714 73.9 55.9714 73.9 56.0714V56.7714C73.9 56.8714 73.9 56.8714 73.8 56.9714C73.8 56.9714 73.7 57.0714 73.6 57.0714L73 57.1714C72.8 57.2714 72.6 57.2714 72.5 57.3714C72.3 57.4714 72.3 57.5714 72.2 57.6714C72.1 57.9714 72.2 58.2714 72.4 58.7714L75.5 66.1714L78.7 58.7714C78.9 58.2714 79 57.9714 78.9 57.6714C78.9 57.5714 78.8 57.4714 78.7 57.3714C78.6 57.2714 78.4 57.2714 78.2 57.1714L77.6 57.0714C77.5 57.0714 77.4 56.9714 77.4 56.9714C77.4 56.8714 77.3 56.8714 77.3 56.7714V56.0714C77.3 55.9714 77.3 55.9714 77.3 55.8714C77.3 55.7714 77.3 55.7714 77.4 55.7714C77.4 55.7714 77.5 55.7714 77.6 55.7714C77.7 55.7714 77.8 55.7714 77.9 55.7714C78.3 55.8714 78.7 55.8714 79 55.8714C79.4 55.8714 79.7 55.8714 80 55.8714C80.3 55.8714 80.6 55.8714 81 55.8714C81.4 55.8714 81.8 55.7714 82.2 55.7714C82.3 55.7714 82.4 55.7714 82.5 55.7714C82.6 55.7714 82.6 55.7714 82.7 55.7714C82.8 55.7714 82.8 55.7714 82.8 55.8714C82.8 55.8714 82.8 55.9714 82.8 56.0714V56.7714C82.8 56.8714 82.8 56.8714 82.7 56.9714C82.7 56.9714 82.6 57.0714 82.5 57.0714L82 57.1714C81.8 57.1714 81.7 57.2714 81.6 57.4714C81.4 57.6714 81.3 57.8714 81.1 58.0714C80.9 58.2714 80.7 58.5714 80.5 59.0714C80.3 59.4714 80.1 59.9714 79.8 60.5714L75 71.3714C75 71.4714 75 71.4714 74.9 71.4714C74.9 71.4714 74.8 71.4714 74.7 71.4714H74.3H73.9H73.8L73.7 71.3714L68.3 59.8714Z" fill="#012C63"/>
<path fill-rule="evenodd" clip-rule="evenodd" d="M82.3996 51.0713L76.5996 48.0713L77.0996 50.1713H65.0996V52.3713L76.9996 52.2713L76.6996 54.1713L82.3996 51.0713Z" fill="#012C63"/>
<path fill-rule="evenodd" clip-rule="evenodd" d="M58.2998 28.4712C75.9998 28.4712 90.2998 42.4712 90.2998 59.7712C90.2998 77.0712 75.8998 91.0712 58.2998 91.0712C40.6998 91.0712 26.2998 77.0712 26.2998 59.7712C26.2998 42.4712 40.5998 28.4712 58.2998 28.4712ZM58.2998 32.9712C73.4998 32.9712 85.7998 44.9712 85.7998 59.7712C85.7998 74.5712 73.4998 86.6712 58.2998 86.6712C43.0998 86.6712 30.7998 74.6712 30.7998 59.7712C30.7998 44.9712 43.0998 32.9712 58.2998 32.9712Z" fill="#012C63"/>
<path fill-rule="evenodd" clip-rule="evenodd" d="M58.3 2.97119C90.5 2.97119 116.6 28.3712 116.6 59.8712C116.6 91.2712 90.5 116.771 58.3 116.771C26.1 116.771 0 91.2712 0 59.8712C0.1 28.3712 26.1 2.97119 58.3 2.97119ZM58.3 7.6712C87.8 7.6712 111.8 31.0712 111.8 59.8712C111.8 88.6712 87.9 112.071 58.3 112.071C28.7 112.071 4.8 88.6712 4.8 59.8712C4.9 30.9712 28.8 7.6712 58.3 7.6712Z" fill="#012C63"/>
<path d="M183.4 19.871V76.271H167.3V38.271L160.9 76.271H149.5L142.7 39.071V76.271H126.7V19.871H150.5C151.2 23.271 151.9 27.271 152.7 31.871L155.2 46.271L159.4 19.971H183.4V19.871ZM232.8 52.871C232.8 58.571 232.6 62.571 232.3 64.871C232 67.271 230.9 69.371 229.1 71.371C227.4 73.371 225 74.771 222 75.871C219 76.871 215.5 77.471 211.5 77.471C207.7 77.471 204.3 76.971 201.3 75.971C198.3 74.971 195.9 73.471 194 71.571C192.2 69.571 191.1 67.471 190.7 65.171C190.4 62.871 190.2 58.771 190.2 52.971V43.371C190.2 37.671 190.4 33.671 190.7 31.371C191 28.971 192.1 26.871 193.8 24.871C195.6 22.971 197.9 21.471 200.9 20.371C203.9 19.371 207.4 18.771 211.4 18.771C215.2 18.771 218.6 19.271 221.6 20.271C224.6 21.271 227 22.771 228.9 24.671C230.7 26.671 231.8 28.771 232.2 31.171C232.5 33.471 232.7 37.571 232.7 43.371V52.871H232.8ZM214.4 34.371C214.4 31.771 214.2 30.071 213.9 29.371C213.5 28.671 212.8 28.271 211.7 28.271C210.7 28.271 210 28.571 209.5 29.171C209 29.771 208.7 31.471 208.7 34.371V60.671C208.7 63.971 208.9 65.971 209.2 66.771C209.5 67.571 210.3 67.971 211.5 67.971C212.8 67.971 213.5 67.571 213.9 66.671C214.2 65.771 214.4 63.671 214.4 60.371V34.371ZM296.4 19.871V76.271H280.3V38.271L273.9 76.271H262.5L255.7 39.071V76.271H239.7V19.871H263.5C264.2 23.271 265 27.271 265.7 31.871L268.2 46.271L272.4 19.971H296.4V19.871ZM303.8 19.871H334.5V31.171H322.2V41.871H333.7V52.571H322.2V64.971H335.7V76.271H303.8V19.871ZM382 19.871V76.271H365.9L356.3 50.671V76.271H340.9V19.871H356.3L366.6 45.271V19.871H382ZM426.4 19.871V31.171H415.5V76.271H397.1V31.171H386.2V19.871H426.4ZM472.5 19.871V57.571C472.5 61.871 472.3 64.871 472 66.571C471.7 68.271 470.6 70.071 468.9 71.871C467.2 73.671 464.9 75.071 462.1 75.971C459.3 76.871 456 77.371 452.2 77.371C448 77.371 444.2 76.771 441 75.671C437.8 74.571 435.4 73.071 433.8 71.271C432.2 69.471 431.2 67.571 431 65.571C430.7 63.571 430.6 59.371 430.6 53.071V19.871H449V62.071C449 64.571 449.1 66.071 449.5 66.771C449.8 67.471 450.5 67.771 451.5 67.771C452.7 67.771 453.4 67.371 453.7 66.671C454 65.871 454.2 64.171 454.2 61.371V19.871H472.5ZM536.3 19.871V76.271H520.2V38.271L513.8 76.271H502.4L495.6 39.071V76.271H479.5V19.871H503.3C504 23.271 504.7 27.271 505.5 31.871L508 46.271L512.2 19.971H536.3V19.871Z" fill="#012C63"/>
<path d="M126.1 100.871V87.6713H128.8V100.871H126.1ZM131.3 100.871V87.6713H134V100.871H131.3ZM139.5 100.871V89.8713H135.6V87.6713H146.1V89.8713H142.2V100.871H139.5ZM146.9 98.1713L149.4 97.7713C149.5 98.2713 149.7 98.6713 150.1 98.8713C150.4 99.1713 150.9 99.2713 151.5 99.2713C151.8 99.2713 152.1 99.2713 152.3 99.1713C152.5 99.1713 152.7 99.0713 152.9 98.9713C153 98.8713 153.2 98.7713 153.2 98.6713C153.3 98.5713 153.3 98.3713 153.3 98.2713C153.3 98.1713 153.3 98.0713 153.3 97.9713C153.3 97.8713 153.2 97.8713 153.2 97.7713C153.1 97.6713 153 97.6713 152.9 97.5713C152.8 97.5713 152.6 97.4713 152.4 97.4713C151.4 97.2713 150.5 97.0713 149.8 96.8713C149.1 96.6713 148.7 96.4713 148.4 96.2713C148 96.0713 147.8 95.6713 147.6 95.3713C147.4 95.0713 147.3 94.6713 147.3 94.1713C147.3 93.7713 147.4 93.3713 147.6 92.9713C147.8 92.5713 148 92.2713 148.4 92.0713C148.7 91.7713 149.2 91.5713 149.7 91.4713C150.2 91.3713 150.8 91.2713 151.4 91.2713C152 91.2713 152.6 91.2713 153 91.3713C153.5 91.4713 153.9 91.5713 154.2 91.8713C154.5 92.0713 154.8 92.2713 155.1 92.6713C155.3 92.9713 155.5 93.3713 155.6 93.7713L153.2 94.1713C153.1 93.7713 152.9 93.4713 152.6 93.2713C152.3 93.0713 151.9 92.9713 151.4 92.9713C151.1 92.9713 150.8 92.9713 150.6 92.9713C150.4 92.9713 150.2 93.0713 150.1 93.1713C150 93.2713 149.9 93.3713 149.8 93.4713C149.7 93.5713 149.7 93.6713 149.7 93.7713C149.7 93.8713 149.7 93.9713 149.8 94.0713C149.9 94.1713 149.9 94.2713 150.1 94.2713C150.2 94.3713 150.5 94.3713 150.8 94.5713C151.2 94.6713 151.7 94.7713 152.3 94.9713C153 95.1713 153.6 95.2713 154.1 95.4713C154.6 95.6713 154.9 95.8713 155.2 96.0713C155.4 96.2713 155.6 96.5713 155.8 96.8713C155.9 97.1713 156 97.5713 156 97.8713C156 98.3713 155.9 98.7713 155.7 99.1713C155.5 99.5713 155.2 99.8713 154.8 100.171C154.4 100.471 153.9 100.671 153.4 100.871C152.9 100.971 152.2 101.071 151.6 101.071C151 101.071 150.4 101.071 149.9 100.871C149.4 100.771 148.9 100.571 148.5 100.271C148.1 100.071 147.8 99.7713 147.5 99.3713C147.3 99.0713 147.1 98.6713 146.9 98.1713ZM163.2 100.871V87.6713H165.9V100.871H163.2ZM173.6 100.871V87.6713H176.2L181.6 96.4713V87.6713H184.1V100.871H181.4L176 92.2713V100.871H173.6ZM186.9 100.871V87.6713H189.6V100.871H186.9ZM195.1 100.871V89.8713H191.2V87.6713H201.7V89.8713H197.8V100.871H195.1ZM202.5 98.1713L205 97.7713C205.1 98.2713 205.3 98.6713 205.7 98.8713C206 99.1713 206.5 99.2713 207.1 99.2713C207.4 99.2713 207.7 99.2713 207.9 99.1713C208.1 99.1713 208.3 99.0713 208.5 98.9713C208.6 98.8713 208.8 98.7713 208.8 98.6713C208.8 98.5713 208.9 98.3713 208.9 98.2713C208.9 98.1713 208.9 98.0713 208.9 97.9713C208.9 97.8713 208.8 97.8713 208.7 97.7713C208.7 97.6713 208.6 97.6713 208.4 97.5713C208.3 97.5713 208.1 97.4713 207.9 97.4713C206.9 97.2713 206 97.0713 205.4 96.8713C204.7 96.6713 204.2 96.4713 204 96.2713C203.7 96.0713 203.4 95.6713 203.2 95.3713C203 95.0713 202.9 94.6713 202.9 94.1713C202.9 93.7713 203 93.3713 203.2 92.9713C203.4 92.5713 203.6 92.2713 204 92.0713C204.3 91.7713 204.8 91.5713 205.3 91.4713C205.8 91.3713 206.4 91.2713 207 91.2713C207.6 91.2713 208.2 91.2713 208.7 91.3713C209.2 91.4713 209.6 91.5713 209.9 91.8713C210.2 92.0713 210.5 92.2713 210.7 92.6713C210.9 92.9713 211.1 93.3713 211.2 93.7713L208.8 94.1713C208.7 93.7713 208.5 93.4713 208.2 93.2713C207.9 93.0713 207.5 92.9713 207 92.9713C206.7 92.9713 206.4 92.9713 206.2 92.9713C206 92.9713 205.8 93.0713 205.7 93.1713C205.6 93.2713 205.5 93.3713 205.4 93.4713C205.4 93.5713 205.3 93.6713 205.3 93.7713C205.3 93.8713 205.3 93.9713 205.4 94.0713C205.4 94.1713 205.5 94.2713 205.7 94.2713C205.8 94.3713 206.1 94.3713 206.4 94.5713C206.8 94.6713 207.3 94.7713 207.9 94.9713C208.6 95.1713 209.2 95.2713 209.7 95.4713C210.2 95.6713 210.6 95.8713 210.8 96.0713C211 96.2713 211.2 96.5713 211.4 96.8713C211.5 97.1713 211.6 97.5713 211.6 97.8713C211.6 98.3713 211.5 98.7713 211.3 99.1713C211.1 99.5713 210.8 99.8713 210.4 100.171C210 100.471 209.5 100.671 209 100.871C208.5 100.971 207.8 101.071 207.2 101.071C206.6 101.071 206 101.071 205.5 100.871C205 100.771 204.5 100.571 204.1 100.271C203.7 100.071 203.4 99.7713 203.1 99.3713C202.9 99.0713 202.7 98.6713 202.5 98.1713ZM218.8 100.871V87.6713H221.5V100.871H218.8ZM229.1 100.871V87.6713H231.8V100.871H229.1ZM234.2 100.871V87.6713H236.9V100.871H234.2ZM239.4 100.871V87.6713H242.1V100.871H239.4ZM247.6 100.871V89.8713H243.7V87.6713H254.2V89.8713H250.3V100.871H247.6ZM255 98.1713L257.5 97.7713C257.6 98.2713 257.8 98.6713 258.2 98.8713C258.5 99.1713 259 99.2713 259.6 99.2713C259.9 99.2713 260.2 99.2713 260.4 99.1713C260.6 99.1713 260.8 99.0713 261 98.9713C261.1 98.8713 261.2 98.7713 261.3 98.6713C261.4 98.5713 261.4 98.3713 261.4 98.2713C261.4 98.1713 261.4 98.0713 261.4 97.9713C261.4 97.8713 261.3 97.8713 261.3 97.7713C261.2 97.6713 261.1 97.6713 261 97.5713C260.9 97.5713 260.7 97.4713 260.5 97.4713C259.5 97.2713 258.6 97.0713 257.9 96.8713C257.2 96.6713 256.8 96.4713 256.5 96.2713C256.2 96.0713 255.9 95.6713 255.7 95.3713C255.5 95.0713 255.4 94.6713 255.4 94.1713C255.4 93.7713 255.5 93.3713 255.7 92.9713C255.9 92.5713 256.1 92.2713 256.5 92.0713C256.9 91.7713 257.3 91.5713 257.8 91.4713C258.3 91.3713 258.9 91.2713 259.5 91.2713C260.1 91.2713 260.7 91.2713 261.1 91.3713C261.6 91.4713 262 91.5713 262.3 91.8713C262.6 92.0713 262.9 92.2713 263.1 92.6713C263.3 92.9713 263.5 93.3713 263.6 93.7713L261.2 94.1713C261.1 93.7713 260.9 93.4713 260.6 93.2713C260.3 93.0713 259.9 92.9713 259.4 92.9713C259.1 92.9713 258.8 92.9713 258.6 92.9713C258.4 92.9713 258.2 93.0713 258.1 93.1713C258 93.2713 257.9 93.3713 257.8 93.4713C257.7 93.5713 257.7 93.6713 257.7 93.7713C257.7 93.8713 257.7 93.9713 257.8 94.0713C257.9 94.1713 257.9 94.2713 258.1 94.2713C258.2 94.3713 258.5 94.3713 258.9 94.5713C259.3 94.6713 259.8 94.7713 260.4 94.9713C261.1 95.1713 261.7 95.2713 262.2 95.4713C262.7 95.6713 263 95.8713 263.3 96.0713C263.5 96.2713 263.7 96.5713 263.8 96.8713C263.9 97.1713 264 97.5713 264 97.8713C264 98.3713 263.9 98.7713 263.7 99.1713C263.5 99.5713 263.2 99.8713 262.8 100.171C262.4 100.471 261.9 100.671 261.4 100.871C260.9 100.971 260.3 101.071 259.6 101.071C259 101.071 258.4 101.071 257.9 100.871C257.4 100.771 256.9 100.571 256.5 100.271C256.1 100.071 255.8 99.7713 255.5 99.3713C255.4 99.0713 255.2 98.6713 255 98.1713ZM271.3 100.871V87.6713H274V100.871H271.3ZM281.7 87.6713H287C288.5 87.6713 289.5 87.7713 290.1 87.9713C290.4 88.0713 290.7 88.1713 290.9 88.3713C291.1 88.5713 291.4 88.7713 291.6 89.0713C291.8 89.3713 292 89.6713 292.1 89.9713C292.2 90.2713 292.2 90.5713 292.2 90.9713C292.2 91.2713 292.2 91.5713 292.1 91.8713C292 92.1713 291.9 92.4713 291.7 92.6713C291.5 92.8713 291.3 93.1713 291.1 93.3713C290.9 93.5713 290.6 93.6713 290.4 93.8713C290.8 93.9713 291.1 94.1713 291.5 94.3713C291.8 94.5713 292.1 94.7713 292.3 95.0713C292.5 95.3713 292.7 95.6713 292.8 95.9713C292.9 96.2713 293 96.6713 293 97.0713C293 97.5713 292.9 97.9713 292.8 98.3713C292.7 98.7713 292.5 99.1713 292.2 99.4713C291.9 99.7713 291.6 100.071 291.3 100.271C291 100.471 290.6 100.571 290.2 100.671C289.9 100.771 289.5 100.771 288.9 100.771C288.3 100.771 287.5 100.771 286.5 100.771H281.7V87.6713ZM284.4 89.8713V92.9713H286.1C287.2 92.9713 287.8 92.9713 288.1 92.9713C288.3 92.9713 288.5 92.8713 288.7 92.7713C288.9 92.6713 289 92.5713 289.1 92.4713C289.2 92.3713 289.3 92.1713 289.4 91.9713C289.4 91.7713 289.5 91.5713 289.5 91.3713C289.5 91.1713 289.5 90.9713 289.4 90.8713C289.4 90.6713 289.3 90.5713 289.2 90.4713C289.1 90.3713 289 90.2713 288.9 90.1713C288.8 90.0713 288.7 90.0713 288.5 89.9713C288.4 89.9713 288.1 89.9713 287.6 89.8713C287.2 89.8713 286.6 89.8713 285.9 89.8713H284.4ZM284.4 95.1713V98.6713H286.9C287.5 98.6713 287.9 98.6713 288.3 98.6713C288.6 98.6713 288.9 98.6713 289 98.5713C289.1 98.5713 289.3 98.4713 289.4 98.3713C289.5 98.2713 289.6 98.1713 289.7 98.0713C289.8 97.9713 289.9 97.7713 289.9 97.5713C289.9 97.3713 290 97.1713 290 96.9713C290 96.7713 290 96.5713 289.9 96.3713C289.8 96.1713 289.8 96.0713 289.6 95.8713C289.5 95.7713 289.4 95.6713 289.2 95.5713C289 95.4713 288.9 95.3713 288.7 95.3713C288.5 95.3713 288.3 95.2713 287.9 95.2713C287.5 95.2713 287.1 95.2713 286.5 95.2713L284.4 95.1713ZM295 100.871V87.6713H297.7V100.871H295ZM303.2 100.871V89.8713H299.3V87.6713H309.8V89.8713H305.9V100.871H303.2ZM310.9 96.5713L313.5 96.3713C313.6 97.1713 314 97.8713 314.5 98.2713C315 98.6713 315.6 98.8713 316.4 98.8713C316.8 98.8713 317.1 98.8713 317.5 98.7713C317.8 98.6713 318.1 98.5713 318.3 98.3713C318.5 98.1713 318.7 97.9713 318.8 97.7713C318.9 97.5713 319 97.3713 319 97.0713C319 96.9713 319 96.7713 319 96.6713C319 96.5713 318.9 96.4713 318.8 96.2713C318.7 96.1713 318.6 96.0713 318.5 95.9713C318.4 95.8713 318.2 95.7713 318.1 95.7713C318 95.7713 317.7 95.6713 317.3 95.5713C316.9 95.4713 316.4 95.2713 315.7 95.1713C315.1 95.0713 314.6 94.8713 314.2 94.7713C313.8 94.6713 313.4 94.4713 313.2 94.2713C312.9 94.0713 312.7 93.8713 312.5 93.6713C312.3 93.4713 312.1 93.1713 311.9 92.9713C311.8 92.6713 311.6 92.3713 311.6 92.1713C311.5 91.8713 311.5 91.5713 311.5 91.2713C311.5 90.5713 311.7 89.8713 312.1 89.3713C312.3 89.0713 312.5 88.8713 312.8 88.5713C313.1 88.3713 313.4 88.1713 313.7 88.0713C314.1 87.9713 314.5 87.8713 314.9 87.7713C315.3 87.6713 315.8 87.6713 316.3 87.6713C317.1 87.6713 317.8 87.7713 318.4 87.9713C319 88.1713 319.5 88.3713 320 88.7713C320.4 89.0713 320.8 89.5713 321 90.0713C321.2 90.5713 321.3 91.1713 321.4 91.7713L318.7 91.8713C318.6 91.5713 318.5 91.2713 318.4 90.9713C318.3 90.6713 318.1 90.5713 317.9 90.3713C317.7 90.2713 317.5 90.1713 317.2 90.0713C316.9 89.9713 316.6 89.9713 316.2 89.9713C315.8 89.9713 315.5 89.9713 315.2 90.0713C314.9 90.0713 314.7 90.1713 314.5 90.3713C314.3 90.4713 314.1 90.5713 314.1 90.7713C314 90.9713 314 91.0713 314 91.2713C314 91.4713 314 91.5713 314.1 91.7713C314.2 91.8713 314.3 92.0713 314.5 92.1713C314.7 92.2713 315 92.3713 315.4 92.5713C315.8 92.6713 316.3 92.8713 317 92.9713C318.4 93.2713 319.3 93.6713 319.9 93.9713C320.2 94.1713 320.5 94.3713 320.7 94.5713C320.9 94.7713 321.1 95.0713 321.3 95.3713C321.5 95.6713 321.6 95.9713 321.7 96.2713C321.8 96.5713 321.8 96.9713 321.8 97.3713C321.8 97.9713 321.7 98.4713 321.5 98.9713C321.3 99.4713 321 99.8713 320.5 100.271C320.1 100.671 319.5 100.971 318.8 101.171C318.1 101.371 317.3 101.471 316.4 101.471C313 101.171 311.2 99.6713 310.9 96.5713ZM329 100.871V87.6713H331.7V100.871H329ZM339.3 100.871V87.6713H343.3L345.7 96.6713L348.1 87.6713H352.1V100.871H349.7V90.4713L347.1 100.871H344.5L341.9 90.4713V100.871H339.3ZM360.4 97.8713L362.9 98.2713C362.7 98.7713 362.5 99.1713 362.3 99.5713C362 99.8713 361.7 100.171 361.4 100.471C361 100.671 360.6 100.871 360.2 100.971C359.8 101.071 359.3 101.171 358.8 101.171C358.1 101.171 357.4 101.071 356.9 100.871C356.3 100.671 355.9 100.371 355.5 99.9713C355 99.5713 354.7 98.9713 354.5 98.3713C354.3 97.7713 354.2 96.9713 354.2 96.1713C354.2 95.3713 354.3 94.6713 354.5 93.9713C354.7 93.3713 355.1 92.7713 355.5 92.2713C355.9 91.8713 356.3 91.5713 356.9 91.3713C357.4 91.1713 358 91.0713 358.6 91.0713C359.3 91.0713 359.9 91.1713 360.4 91.3713C360.9 91.5713 361.4 91.8713 361.8 92.2713C362.7 93.1713 363.2 94.5713 363.2 96.4713V96.7713H356.8C356.8 97.1713 356.8 97.4713 357 97.7713C357.1 98.0713 357.2 98.2713 357.4 98.4713C357.6 98.6713 357.8 98.8713 358.1 98.9713C358.3 99.0713 358.6 99.0713 358.9 99.0713C359.3 99.0713 359.7 98.9713 359.9 98.7713C360 98.6713 360.2 98.2713 360.4 97.8713ZM360.5 95.2713C360.5 94.8713 360.4 94.5713 360.3 94.2713C360.2 93.9713 360.1 93.7713 359.9 93.5713C359.7 93.3713 359.5 93.2713 359.3 93.1713C359.1 93.0713 358.9 93.0713 358.6 93.0713C358.3 93.0713 358.1 93.0713 357.9 93.1713C357.7 93.2713 357.5 93.3713 357.3 93.5713C356.9 93.9713 356.7 94.5713 356.8 95.1713L360.5 95.2713ZM373.9 100.871H371.5V99.4713C371.3 99.7713 371.1 99.9713 370.9 100.171C370.7 100.371 370.4 100.571 370.2 100.671C369.9 100.771 369.7 100.871 369.4 100.971C369.1 101.071 368.8 101.071 368.6 101.071C368.1 101.071 367.5 100.971 367.1 100.771C366.7 100.571 366.2 100.171 365.8 99.7713C365.4 99.3713 365.1 98.7713 364.9 98.1713C364.7 97.5713 364.6 96.8713 364.6 96.0713C364.6 95.2713 364.7 94.4713 364.9 93.8713C365.1 93.2713 365.4 92.7713 365.8 92.2713C366.2 91.7713 366.6 91.5713 367.1 91.3713C367.6 91.1713 368.1 91.0713 368.7 91.0713C369 91.0713 369.2 91.0713 369.5 91.1713C369.8 91.1713 370 91.2713 370.2 91.3713C370.7 91.5713 371.1 91.9713 371.5 92.3713V87.5713H374L373.9 100.871ZM367.1 95.8713C367.1 96.7713 367.2 97.3713 367.4 97.7713C367.5 97.9713 367.6 98.1713 367.7 98.2713C367.8 98.4713 368 98.5713 368.1 98.6713C368.3 98.7713 368.4 98.8713 368.6 98.8713C368.8 98.8713 369 98.9713 369.2 98.9713C369.5 98.9713 369.7 98.9713 370 98.7713C370.2 98.6713 370.5 98.4713 370.7 98.1713C370.9 97.9713 371 97.6713 371.1 97.2713C371.2 96.8713 371.2 96.4713 371.2 95.9713C371.2 94.8713 371 94.0713 370.6 93.5713C370.4 93.3713 370.2 93.1713 369.9 93.0713C369.7 92.9713 369.4 92.8713 369.1 92.8713C368.8 92.8713 368.5 92.9713 368.3 93.0713C368.1 93.1713 367.8 93.3713 367.6 93.5713C367.4 93.7713 367.2 94.0713 367.1 94.4713C367.2 95.0713 367.1 95.4713 367.1 95.8713ZM376.4 90.0713V87.7713H379V90.0713H376.4ZM376.4 100.871V91.3713H379V100.971H376.4V100.871ZM389.9 94.1713L387.4 94.5713C387.3 94.0713 387.1 93.6713 386.8 93.4713C386.5 93.2713 386.1 93.0713 385.6 93.0713C385.3 93.0713 385 93.0713 384.8 93.1713C384.6 93.2713 384.3 93.4713 384.1 93.6713C383.9 93.8713 383.8 94.1713 383.7 94.5713C383.6 94.9713 383.6 95.3713 383.6 95.8713C383.6 96.4713 383.6 96.9713 383.7 97.3713C383.8 97.7713 383.9 98.0713 384.1 98.3713C384.3 98.5713 384.5 98.7713 384.8 98.8713C385.1 98.9713 385.3 99.0713 385.7 99.0713C385.9 99.0713 386.2 99.0713 386.4 98.9713C386.6 98.8713 386.8 98.7713 386.9 98.6713C387 98.5713 387.2 98.3713 387.3 98.0713C387.4 97.8713 387.5 97.5713 387.6 97.1713L390.1 97.5713C389.9 98.7713 389.3 99.5713 388.6 100.171C387.9 100.771 386.9 101.071 385.6 101.071C384.8 101.071 384.1 100.971 383.6 100.671C383 100.471 382.5 100.071 382.2 99.5713C381.8 99.0713 381.5 98.5713 381.3 97.9713C381.1 97.3713 381 96.7713 381 96.0713C381 95.2713 381.1 94.4713 381.3 93.8713C381.5 93.2713 381.8 92.6713 382.3 92.2713C382.7 91.8713 383.2 91.5713 383.8 91.2713C384.4 91.0713 385 90.9713 385.7 90.9713C386.3 90.9713 386.8 90.9713 387.3 91.1713C387.8 91.2713 388.2 91.4713 388.5 91.6713C388.9 91.8713 389.2 92.2713 389.4 92.5713C389.6 93.1713 389.8 93.6713 389.9 94.1713ZM393.7 94.2713L391.4 93.8713C391.5 93.3713 391.7 92.9713 392 92.5713C392.2 92.2713 392.5 91.9713 392.8 91.7713C393.1 91.5713 393.5 91.3713 394 91.2713C394.5 91.1713 395 91.1713 395.6 91.1713C396.1 91.1713 396.6 91.1713 397 91.2713C397.4 91.3713 397.8 91.3713 398 91.5713C398.6 91.7713 399 92.1713 399.2 92.5713C399.3 92.7713 399.4 93.0713 399.5 93.4713C399.5 93.8713 399.6 94.2713 399.6 94.8713V97.8713C399.6 98.2713 399.6 98.6713 399.6 98.9713C399.6 99.2713 399.6 99.5713 399.7 99.7713C399.7 99.9713 399.8 100.171 399.9 100.371C400 100.571 400.1 100.771 400.2 101.071H397.7L397.4 99.9713C397.2 100.171 397 100.371 396.7 100.571C396.5 100.671 396.2 100.871 396 100.971C395.8 101.071 395.5 101.171 395.2 101.171C394.9 101.171 394.7 101.271 394.4 101.271C393.9 101.271 393.5 101.271 393.1 101.071C392.7 100.971 392.4 100.771 392.1 100.471C391.8 100.171 391.6 99.8713 391.4 99.5713C391.2 99.2713 391.2 98.8713 391.2 98.3713C391.2 98.1713 391.2 97.8713 391.3 97.5713C391.4 97.3713 391.4 97.1713 391.6 96.9713C391.7 96.7713 391.9 96.5713 392 96.4713C392.2 96.2713 392.4 96.1713 392.6 96.0713C392.8 95.9713 393.1 95.8713 393.5 95.7713C393.8 95.6713 394.3 95.5713 394.8 95.4713C395.4 95.3713 395.9 95.2713 396.3 95.1713C396.7 95.0713 397 94.9713 397.3 94.8713C397.3 94.5713 397.3 94.3713 397.3 94.1713C397.3 93.9713 397.2 93.8713 397.2 93.7713C397.2 93.6713 397.1 93.5713 397 93.5713C396.9 93.4713 396.8 93.4713 396.7 93.3713C396.6 93.3713 396.4 93.2713 396.3 93.2713C396.1 93.2713 395.9 93.2713 395.7 93.2713C395.5 93.2713 395.3 93.2713 395.1 93.3713C394.9 93.3713 394.8 93.4713 394.6 93.5713C394.5 93.6713 394.4 93.7713 394.3 93.9713C393.9 93.7713 393.8 93.9713 393.7 94.2713ZM397.1 96.2713C396.9 96.3713 396.7 96.3713 396.5 96.4713C396.3 96.4713 396 96.5713 395.6 96.6713C395.2 96.7713 394.9 96.8713 394.6 96.9713C394.3 97.0713 394.2 97.1713 394 97.2713C393.9 97.3713 393.8 97.4713 393.7 97.5713C393.6 97.6713 393.6 97.8713 393.6 97.9713C393.6 98.1713 393.6 98.2713 393.7 98.4713C393.8 98.5713 393.9 98.7713 394 98.8713C394.1 98.9713 394.3 99.0713 394.5 99.1713C394.7 99.2713 394.8 99.2713 395.1 99.2713C395.3 99.2713 395.4 99.2713 395.6 99.2713C395.8 99.2713 395.9 99.1713 396.1 99.0713C396.3 98.9713 396.4 98.8713 396.5 98.7713C396.6 98.6713 396.7 98.5713 396.8 98.3713C396.9 98.2713 396.9 98.0713 396.9 97.7713C396.9 97.5713 396.9 97.2713 396.9 96.8713V96.2713H397.1ZM402.1 100.871V87.6713H404.7V100.871H402.1ZM412.4 100.871V87.6713H415.1V100.871H412.4ZM422.8 100.871V87.6713H425.5V93.5713L430.9 87.6713H434.5L429.5 92.7713L434.7 100.871H431.3L427.6 94.6713L425.4 96.8713V100.871H422.8ZM439.5 100.871L434.7 87.6713H437.6L440.9 97.4713L444.1 87.6713H446.9L442.2 100.871H439.5ZM448.5 100.871V87.6713H452.8C453.6 87.6713 454.3 87.6713 454.8 87.6713C455.3 87.6713 455.7 87.7713 456 87.7713C456.4 87.8713 456.8 87.9713 457.1 88.2713C457.4 88.4713 457.7 88.7713 458 89.0713C458.2 89.3713 458.4 89.7713 458.6 90.1713C458.7 90.5713 458.8 91.0713 458.8 91.6713C458.8 92.1713 458.8 92.5713 458.7 92.9713C458.6 93.3713 458.4 93.7713 458.2 94.0713C458 94.3713 457.8 94.6713 457.5 94.8713C457.2 95.0713 456.9 95.2713 456.6 95.3713C456.3 95.4713 455.8 95.5713 455.3 95.6713C454.7 95.6713 454 95.7713 453.2 95.7713H451.5V100.771L448.5 100.871ZM451.2 89.9713V93.6713H452.7C453.7 93.6713 454.4 93.6713 454.7 93.4713C455 93.3713 455.3 93.1713 455.6 92.8713C455.7 92.6713 455.8 92.5713 455.9 92.3713C455.9 92.1713 456 91.9713 456 91.7713C456 91.5713 456 91.3713 455.9 91.1713C455.8 90.9713 455.8 90.8713 455.6 90.6713C455.5 90.5713 455.4 90.3713 455.2 90.2713C455 90.1713 454.9 90.0713 454.7 90.0713C454.5 90.0713 454.2 89.9713 453.9 89.9713C453.5 89.9713 453.1 89.9713 452.5 89.9713H451.2ZM464.3 100.871V95.3713L459.5 87.6713H462.7L465.8 92.8713L468.9 87.6713H472L467.1 95.3713V100.871H464.3ZM478.3 100.871V87.6713H481V100.871H478.3ZM488.7 100.871V87.6713H491.3L496.7 96.4713V87.6713H499.2V100.871H496.5L491.1 92.2713V100.871H488.7ZM505 100.871V89.8713H501.1V87.6713H511.6V89.8713H507.7V100.871H505ZM512.7 96.5713L515.3 96.3713C515.4 97.1713 515.7 97.8713 516.2 98.2713C516.7 98.6713 517.3 98.8713 518.1 98.8713C518.5 98.8713 518.9 98.8713 519.2 98.7713C519.5 98.6713 519.8 98.5713 520 98.3713C520.2 98.1713 520.4 97.9713 520.5 97.7713C520.6 97.5713 520.7 97.3713 520.7 97.0713C520.7 96.9713 520.7 96.7713 520.6 96.6713C520.5 96.5713 520.5 96.4713 520.4 96.2713C520.3 96.1713 520.2 96.0713 520.1 95.9713C520 95.8713 519.8 95.7713 519.7 95.7713C519.6 95.7713 519.3 95.6713 518.9 95.5713C518.5 95.4713 518 95.2713 517.3 95.1713C516.7 95.0713 516.2 94.8713 515.8 94.7713C515.4 94.6713 515.1 94.4713 514.8 94.2713C514.5 94.0713 514.3 93.8713 514.1 93.6713C513.9 93.4713 513.7 93.1713 513.6 92.9713C513.4 92.6713 513.3 92.3713 513.2 92.1713C513.1 91.8713 513.1 91.5713 513.1 91.2713C513.1 90.5713 513.3 89.8713 513.7 89.3713C513.9 89.0713 514.1 88.8713 514.4 88.5713C514.7 88.3713 515 88.1713 515.3 88.0713C515.7 87.9713 516.1 87.8713 516.5 87.7713C516.9 87.6713 517.4 87.6713 517.9 87.6713C518.7 87.6713 519.4 87.7713 520 87.9713C520.6 88.1713 521.1 88.3713 521.6 88.7713C522 89.0713 522.4 89.5713 522.6 90.0713C522.8 90.5713 522.9 91.1713 523 91.7713L520.3 91.8713C520.2 91.5713 520.1 91.2713 520 90.9713C519.9 90.7713 519.7 90.5713 519.5 90.3713C519.3 90.2713 519.1 90.1713 518.8 90.0713C518.5 89.9713 518.2 89.9713 517.8 89.9713C517.4 89.9713 517.1 89.9713 516.8 90.0713C516.5 90.0713 516.3 90.1713 516.1 90.3713C515.9 90.4713 515.8 90.5713 515.7 90.7713C515.6 90.9713 515.6 91.0713 515.6 91.2713C515.6 91.4713 515.6 91.5713 515.7 91.7713C515.8 91.9713 515.9 92.0713 516.1 92.1713C516.3 92.2713 516.6 92.3713 517 92.5713C517.4 92.6713 517.9 92.8713 518.6 92.9713C520 93.2713 520.9 93.6713 521.5 93.9713C521.8 94.1713 522.1 94.3713 522.3 94.5713C522.5 94.7713 522.7 95.0713 522.9 95.3713C523 95.6713 523.2 95.9713 523.2 96.2713C523.3 96.5713 523.3 96.9713 523.3 97.3713C523.3 97.9713 523.2 98.4713 523 98.9713C522.8 99.4713 522.5 99.8713 522 100.271C521.6 100.671 521 100.971 520.3 101.171C519.6 101.371 518.8 101.471 517.9 101.471C514.8 101.171 513 99.6713 512.7 96.5713ZM525.7 100.871V87.6713H535.5V89.8713H528.3V92.7713H535V94.9713H528.3V98.5713H535.7V100.771H525.7V100.871Z" fill="#012C63"/>
<path d="M536.5 80.771H126.7V82.571H536.5V80.771Z" fill="#012C63"/>
</svg>
