<svg width="62" height="23" viewBox="0 0 62 23" fill="none" xmlns="http://www.w3.org/2000/svg">
<path d="M62 0H0V22.9953H62V0Z" fill="#EB1C24"/>
<path d="M50.4977 11.5346C50.4977 13.2147 50.7559 14.4178 51.2724 15.1527C51.5148 15.491 51.8331 15.7668 52.2012 15.9578C52.5694 16.1488 52.9771 16.2495 53.3913 16.2519C53.8054 16.2542 54.2142 16.158 54.5845 15.9712C54.9547 15.7843 55.276 15.5121 55.5222 15.1766C56.0243 14.454 56.276 13.1655 56.2775 11.3113C56.2775 9.74396 56.0149 8.60367 55.4899 7.87744C55.2509 7.5324 54.9305 7.25267 54.5575 7.06345C54.1845 6.87423 53.7706 6.78147 53.3532 6.79352C52.9434 6.7854 52.5383 6.88193 52.1756 7.07411C51.8129 7.2663 51.5044 7.54789 51.2788 7.89262C50.7581 8.62535 50.4977 9.8379 50.4977 11.5303V11.5346ZM46.2221 11.5086C46.2221 8.79733 46.8511 6.68585 48.1092 5.17413C49.3673 3.66242 51.1167 2.90801 53.3575 2.9109C55.6527 2.9109 57.4265 3.65375 58.6789 5.13945C59.9312 6.62514 60.5531 8.70411 60.5445 11.3763C60.5445 13.3187 60.2719 14.9085 59.7268 16.1456C59.2329 17.3233 58.4107 18.3316 57.3598 19.0484C56.3291 19.7399 55.0531 20.0846 53.5167 20.0846C51.9803 20.0846 50.6677 19.7876 49.6435 19.1914C48.6192 18.5953 47.7951 17.6458 47.1581 16.3537C46.5212 15.0617 46.2221 13.4553 46.2221 11.5129V11.5086ZM31.3553 3.19272H35.3469L40.5521 12.3866V3.19272H44.5803V19.8136H40.5521L35.3727 10.6891V19.8136H31.3553V3.19272ZM24.5728 13.4748L23.0429 7.50457L21.5237 13.4792L24.5728 13.4748ZM25.4679 17.0691H20.6006L19.9314 19.8136H15.5653L20.7619 3.19272H25.4185L30.6172 19.8136H26.1458L25.4679 17.0691ZM1.74646 3.19489H5.73806L10.9433 12.3887V3.19272H14.9671V19.8136H10.9433L5.76388 10.6891V19.8136H1.74646V3.19489Z" fill="white"/>
</svg>
