<svg width="133" height="17" viewBox="0 0 133 17" fill="none" xmlns="http://www.w3.org/2000/svg">
<path d="M21.2948 13.8657V4.05029H25.4757C27.8462 4.05029 29.0315 5.0115 29.0315 6.93392C29.0315 8.85634 27.7133 9.82746 25.0771 9.84729H24.1058V13.8657H21.2948ZM24.1058 8.93992H24.7352C25.7575 8.93992 26.2687 8.25425 26.2687 6.88292C26.2687 5.59942 25.7575 4.95767 24.7352 4.95767H24.1058V8.93992Z" fill="#012C63"/>
<path d="M37.2589 4.05035V10.6378C37.2589 12.896 36.0275 14.0251 33.5647 14.0251C31.1019 14.0251 29.874 12.896 29.881 10.6378V4.05035H32.6921V10.7228C32.6921 11.5856 32.8137 12.1756 33.0571 12.493C33.3004 12.8103 33.7493 12.9668 34.4039 12.9626C35.6751 12.9626 36.3114 12.1834 36.3128 10.6251V4.0376L37.2589 4.05035Z" fill="#012C63"/>
<path d="M38.7861 13.8657V4.05029H42.9523C44.0348 4.05029 44.9005 4.28192 45.5494 4.74517C45.8544 4.94568 46.1038 5.22165 46.2741 5.54701C46.4444 5.87236 46.53 6.23635 46.5228 6.60454C46.5228 7.79313 45.827 8.56663 44.4355 8.92504C45.1515 9.19563 45.6137 9.491 45.8221 9.81117C46.0305 10.1313 46.1739 10.754 46.2522 11.679C46.3417 12.7812 46.5242 13.5101 46.7997 13.8657H43.7474C43.5376 13.3248 43.4384 12.7465 43.4558 12.1657L43.4411 11.5834L43.4243 10.8375C43.4243 9.70421 42.9754 9.13754 42.0776 9.13754H41.593V13.855L38.7861 13.8657ZM41.5951 8.34067H42.1657C43.2314 8.34067 43.7635 7.774 43.7621 6.64067C43.7607 5.50734 43.2286 4.94067 42.1657 4.94067H41.5972L41.5951 8.34067Z" fill="#012C63"/>
<path d="M55.2538 4.05025V10.6377C55.2538 12.8945 54.021 14.0236 51.5554 14.025C49.0898 14.0264 47.8619 12.8973 47.8716 10.6377V4.05025H50.6827V10.7227C50.6827 11.5855 50.8044 12.1755 51.0477 12.4929C51.291 12.8102 51.7414 12.9682 52.3987 12.9667C53.6727 12.9667 54.3098 12.1876 54.3098 10.6292V4.04175L55.2538 4.05025Z" fill="#012C63"/>
<path d="M56.7789 13.8657V4.05029H60.7962C63.652 4.05029 65.0792 5.69009 65.0778 8.96967C65.0764 12.2493 63.5975 13.8784 60.641 13.8572L56.7789 13.8657ZM59.59 13.0539H60.3284C60.6252 13.0751 60.9211 13.0005 61.1736 12.841C61.426 12.6814 61.6222 12.445 61.7339 12.1657C61.994 11.5721 62.1241 10.5018 62.1241 8.95479C62.1241 7.40779 61.9954 6.33892 61.7381 5.74817C61.4801 5.15742 61.0102 4.86417 60.3284 4.86417H59.59V13.0539Z" fill="#012C63"/>
<path d="M70.7208 4.05029L73.4228 13.8657H70.5929L70.0181 11.7407H67.1L66.4833 13.8657H65.382L68.2496 4.05029H70.7208ZM67.377 10.7525H69.7559L68.6126 6.40267L67.377 10.7525Z" fill="#012C63"/>
<path d="M84.9606 9.92603L86.1606 10.2427C86.1795 10.4913 86.19 10.708 86.19 10.8802C86.2061 11.3177 86.1211 11.7529 85.942 12.1514C85.7628 12.5498 85.4943 12.9003 85.1578 13.1752C84.4782 13.7418 83.5649 14.0252 82.4181 14.0252C79.5469 14.0252 78.1107 12.3882 78.1093 9.11428C78.1093 7.55594 78.5288 6.29653 79.3679 5.33603C79.7725 4.86287 80.2762 4.48721 80.8424 4.23648C81.4086 3.98575 82.0229 3.86627 82.6405 3.88678C84.7383 3.88678 85.7872 4.90749 85.7872 6.9489L84.5809 7.5099C84.5956 7.22303 84.6019 6.9999 84.6019 6.84265C84.6019 5.3934 84.0292 4.66949 82.8838 4.6709C81.6727 4.6709 81.0671 6.20728 81.0671 9.28003C81.0671 11.9207 81.744 13.241 83.0978 13.241C83.366 13.2445 83.6313 13.1854 83.8732 13.0682C84.1152 12.951 84.3272 12.7789 84.4928 12.5653C84.8725 12.0881 85.0699 11.4884 85.0487 10.8759C85.0411 10.5576 85.0117 10.2402 84.9606 9.92603Z" fill="#012C63"/>
<path d="M90.0561 4.05029V12.8797H94.0419V13.8657H87.2451V4.05029H90.0561Z" fill="#012C63"/>
<path d="M99.0369 4.05029L101.743 13.8657H98.9068L98.332 11.7407H95.4161L94.7868 13.8657H93.6875L96.5552 4.05029H99.0369ZM95.693 10.7525H98.0698L96.9286 6.40267L95.693 10.7525Z" fill="#012C63"/>
<path d="M108.825 6.80011L107.518 7.04449C107.569 6.8278 107.598 6.60632 107.604 6.38362C107.604 5.24178 106.92 4.67087 105.553 4.67087C104.472 4.67087 103.932 5.06399 103.933 5.85024C103.933 6.44099 104.537 6.94674 105.743 7.36749C108.072 8.17782 109.236 9.37632 109.236 10.963C109.251 11.3872 109.171 11.8093 109.001 12.1973C108.832 12.5854 108.577 12.9292 108.257 13.2027C107.605 13.7694 106.736 14.0527 105.651 14.0527C103.251 14.0527 102.052 13.1107 102.053 11.2265C102.055 11.0368 102.067 10.8474 102.089 10.6591L103.444 10.3552C103.348 10.7093 103.296 11.074 103.287 11.4411C103.287 12.658 103.976 13.2672 105.353 13.2686C106.457 13.2686 107.008 12.8302 107.006 11.9532C107.006 11.3016 106.346 10.7285 105.026 10.2341C103.118 9.52578 102.165 8.39245 102.167 6.83412C102.154 6.42948 102.234 6.02737 102.399 5.65889C102.565 5.29041 102.812 4.96544 103.121 4.70912C103.756 4.16937 104.595 3.89949 105.639 3.89949C107.762 3.88957 108.824 4.85645 108.825 6.80011Z" fill="#012C63"/>
<path d="M116.803 6.80001L115.496 7.04438C115.55 6.82515 115.581 6.60079 115.588 6.37501C115.588 5.23318 114.904 4.66226 113.537 4.66226C112.458 4.66226 111.919 5.05538 111.919 5.84163C111.919 6.43238 112.523 6.93813 113.73 7.35888C116.057 8.16922 117.22 9.36772 117.22 10.9544C117.236 11.3786 117.156 11.8009 116.986 12.189C116.816 12.5771 116.562 12.9209 116.241 13.1941C115.588 13.7608 114.72 14.0441 113.637 14.0441C111.238 14.0441 110.038 13.102 110.038 11.2179C110.038 11.0649 110.05 10.8758 110.073 10.6505L111.428 10.3466C111.333 10.7008 111.281 11.0655 111.273 11.4325C111.273 12.6494 111.961 13.2586 113.337 13.26C114.441 13.26 114.993 12.8216 114.993 11.9446C114.993 11.293 114.332 10.7199 113.012 10.2255C111.106 9.51717 110.152 8.38384 110.151 6.82551C110.139 6.42095 110.219 6.01899 110.384 5.65059C110.55 5.28219 110.796 4.95715 111.105 4.70051C111.743 4.16076 112.582 3.89088 113.623 3.89088C115.743 3.88663 116.803 4.85634 116.803 6.80001Z" fill="#012C63"/>
<path d="M124.724 4.05029V5.03629H121.252V8.01129H124.168V8.99729H121.252V12.886H125.312V13.872H118.443V4.05029H124.724Z" fill="#012C63"/>
<path d="M132.526 6.80027L131.219 7.04464C131.27 6.82795 131.299 6.60648 131.305 6.38377C131.305 5.24193 130.621 4.67102 129.253 4.67102C128.175 4.67102 127.636 5.06414 127.636 5.85039C127.636 6.44114 128.24 6.94689 129.446 7.36764C131.772 8.17798 132.936 9.37648 132.937 10.9631C132.952 11.3875 132.871 11.8097 132.7 12.1975C132.529 12.5852 132.273 12.9284 131.951 13.2008C131.299 13.7674 130.432 14.0508 129.348 14.0508C126.948 14.0508 125.748 13.1087 125.748 11.2245C125.748 11.0715 125.761 10.8824 125.784 10.6571L127.139 10.3533C127.044 10.7074 126.991 11.0721 126.984 11.4391C126.984 12.6561 127.672 13.2652 129.048 13.2666C130.151 13.2666 130.703 12.8282 130.703 11.9513C130.703 11.2996 130.043 10.7266 128.723 10.2321C126.815 9.52381 125.861 8.39048 125.861 6.83214C125.849 6.42758 125.929 6.02563 126.095 5.65722C126.26 5.28882 126.507 4.96379 126.816 4.70714C127.454 4.16739 128.293 3.89752 129.333 3.89752C131.46 3.88902 132.525 4.8566 132.526 6.80027Z" fill="#012C63"/>
<path d="M24.4079 16.2904C23.4653 16.7307 22.4001 16.8224 21.3976 16.5496C20.8606 16.4094 20.3487 16.1863 19.818 15.9971C19.369 15.8335 18.9285 15.6401 18.4712 15.5063C17.971 15.3445 17.429 15.3786 16.9524 15.6019C14.8798 16.5093 12.7274 16.7175 10.5352 16.0269C10.3693 15.9784 10.209 15.9121 10.057 15.8293C8.47731 14.9453 8.28432 13.3005 9.63739 12.0489C10.0223 11.7201 10.4367 11.4284 10.8751 11.1776C11.3723 10.8695 11.9093 10.6251 12.4002 10.3064C12.8205 10.0526 13.2092 9.74864 13.5582 9.40114C14.0868 8.83589 13.963 8.06239 13.275 7.71601C12.8649 7.50808 12.4158 7.39143 11.9575 7.37389C11.1646 7.36114 10.4723 7.71814 9.77375 8.24939C9.98353 8.43427 10.1744 8.58727 10.3381 8.77001C10.7345 9.20777 11.0954 9.69227 10.8122 10.317C10.529 10.9418 9.97304 11.1075 9.35839 11.1288C8.16474 11.1713 7.55009 10.3723 7.88993 9.17589C8.00321 8.77852 7.88993 8.64039 7.5438 8.51502C5.75858 7.88814 3.59575 9.06964 3.33143 10.8398C3.27829 11.2005 3.30924 11.5689 3.4218 11.9154C3.53435 12.2618 3.7254 12.5768 3.97965 12.8351C4.41809 13.3175 4.93834 13.7191 5.41454 14.1675C5.71478 14.4293 5.99527 14.7134 6.25365 15.0175C6.57042 15.4234 6.54944 15.7846 6.23897 16.1948C5.69145 16.9215 4.95302 17.0851 4.10342 16.9003C1.63641 16.3648 -0.425716 13.1836 0.0882427 10.6931C0.379836 9.27789 1.28399 8.32377 2.4105 7.50564C3.53701 6.68752 4.64045 5.82051 5.70823 4.92376C6.08452 4.58334 6.39472 4.17471 6.62287 3.71889C7.17458 2.69676 6.72566 1.60876 5.6411 1.21564C4.8729 0.917665 4.02402 0.91242 3.25229 1.20088C2.48057 1.48934 1.83851 2.05188 1.44551 2.78389C1.38887 2.88589 1.32174 2.98151 1.25252 3.09414C0.92736 2.38651 1.18119 1.47064 1.842 0.920264C2.5028 0.369889 3.2664 0.157389 4.08244 0.0702641C5.19427 -0.0572359 6.26414 0.0893887 7.22913 0.690764C8.63675 1.57051 8.94302 3.24076 7.95077 4.58589C7.22283 5.56764 6.25575 6.28589 5.28028 6.97864C4.44116 7.57789 3.60204 8.16226 2.80279 8.80189C2.09583 9.36927 1.52313 10.0769 1.37209 11.0098C1.14763 12.4229 1.66788 13.581 2.73356 14.4586C3.23493 14.873 3.86427 15.1365 4.45165 15.4361C4.57542 15.4978 4.98029 15.5636 4.92995 15.4C4.89196 15.2533 4.82005 15.1178 4.72017 15.0048C4.24187 14.5033 3.71533 14.0443 3.2664 13.5173C1.52313 11.4815 2.24268 8.71689 4.74744 7.75427C5.89283 7.31651 7.07389 7.35477 8.24656 7.55452C8.4707 7.60427 8.70312 7.60141 8.92601 7.54616C9.1489 7.49092 9.35636 7.38474 9.5325 7.23577C11.001 6.14139 12.6163 6.04364 14.2358 6.83202C15.7294 7.55877 15.9392 9.20564 14.7099 10.3404C14.2289 10.7383 13.7151 11.0938 13.1743 11.4029C12.5827 11.7854 11.9408 12.0978 11.3765 12.5164C10.1576 13.4216 10.3066 14.533 11.71 15.1238C12.7149 15.5488 13.7784 15.5955 14.8462 15.519C15.6392 15.4638 16.4279 15.349 17.2188 15.2598C17.2586 15.2555 17.2971 15.2433 17.3321 15.2236C18.1565 14.7498 19.0103 14.89 19.8494 15.1556C20.6088 15.3958 21.3515 15.7018 22.1234 15.893C22.8954 16.0843 23.6506 16.1671 24.4079 16.2904Z" fill="#F07B21"/>
<path d="M16.0839 6.40708L15.6098 7.75008C14.928 6.73433 13.9546 6.33058 12.761 6.11596L14.2294 5.34033C14.5441 5.80571 14.9532 5.79721 15.4315 5.52946C15.4189 6.02246 15.5385 6.37521 16.0839 6.40708Z" fill="#F07B21"/>
</svg>
